<svg width="10" height="20" viewBox="0 0 10 20" fill="none" xmlns="http://www.w3.org/2000/svg">
<path d="M9.06885 10.417C9.06885 10.527 9.04769 10.6286 9.00537 10.7217C8.96305 10.8148 8.89958 10.9036 8.81494 10.9883L3.87012 15.8252C3.73047 15.9691 3.55697 16.041 3.34961 16.041C3.21419 16.041 3.08936 16.0072 2.9751 15.9395C2.86084 15.876 2.76986 15.7871 2.70215 15.6729C2.63867 15.5628 2.60693 15.4401 2.60693 15.3047C2.60693 15.1016 2.68311 14.9217 2.83545 14.7651L7.2915 10.417L2.83545 6.06885C2.68311 5.91227 2.60693 5.73454 2.60693 5.53564C2.60693 5.396 2.63867 5.27116 2.70215 5.16113C2.76986 5.05111 2.86084 4.96436 2.9751 4.90088C3.08936 4.83317 3.21419 4.79932 3.34961 4.79932C3.55697 4.79932 3.73047 4.86914 3.87012 5.00879L8.81494 9.8457C8.89958 9.93034 8.96305 10.0192 9.00537 10.1123C9.04769 10.2054 9.06885 10.307 9.06885 10.417Z" fill="black"/>
</svg>
