<svg width="14" height="24" viewBox="0 0 14 24" fill="none" xmlns="http://www.w3.org/2000/svg">
<path d="M12.4229 12.6543C12.4229 12.7656 12.3994 12.8711 12.3525 12.9707C12.3115 13.0645 12.25 13.1523 12.168 13.2344L5.20703 20.0459C5.04883 20.2041 4.85547 20.2832 4.62695 20.2832C4.48047 20.2832 4.3457 20.248 4.22266 20.1777C4.09961 20.1074 4.00293 20.0107 3.93262 19.8877C3.8623 19.7705 3.82715 19.6357 3.82715 19.4834C3.82715 19.2666 3.90332 19.0762 4.05566 18.9121L10.4541 12.6543L4.05566 6.39648C3.90332 6.23242 3.82715 6.04199 3.82715 5.8252C3.82715 5.67285 3.8623 5.53809 3.93262 5.4209C4.00293 5.29785 4.09961 5.20117 4.22266 5.13086C4.3457 5.06055 4.48047 5.02539 4.62695 5.02539C4.85547 5.02539 5.04883 5.10156 5.20703 5.25391L12.168 12.0742C12.25 12.1562 12.3115 12.2471 12.3525 12.3467C12.3994 12.4404 12.4229 12.543 12.4229 12.6543Z" fill="black"/>
</svg>
