<svg width="20" height="20" viewBox="0 0 20 20" fill="none" xmlns="http://www.w3.org/2000/svg">
<path d="M14.9215 10.3051C15.1778 10.0634 15.5807 10.0268 15.8224 10.2831C16.0714 10.5248 16.0787 10.9716 15.8297 11.2133L10.3878 16.6552C8.53478 18.5009 5.86876 18.369 4.18419 16.6918C2.49962 15.0072 2.37511 12.3485 4.22814 10.4955L11.6622 3.04678C13.0831 1.63321 14.9728 1.7211 16.1886 2.9296C17.4264 4.17471 17.4776 6.03506 16.0641 7.44864L8.77648 14.7362C7.98546 15.5273 6.84288 15.5419 6.08849 14.7875C5.39269 14.0917 5.36339 12.8905 6.13976 12.0995L11.2228 7.02383C11.4791 6.76749 11.8526 6.76016 12.1017 6.99454C12.3434 7.24356 12.3287 7.6171 12.0724 7.87344L7.01867 12.9272C6.68908 13.2641 6.78429 13.6449 7.00402 13.8793C7.23107 14.099 7.61925 14.1942 7.94884 13.8647L15.1998 6.60635C16.0055 5.79337 16.152 4.59952 15.361 3.8085C14.5773 3.01749 13.3688 3.16397 12.5631 3.96964L5.17296 11.3598C3.78869 12.744 3.92052 14.5824 5.11437 15.769C6.29357 16.9555 8.13927 17.0946 9.51622 15.7104L14.9215 10.3051Z" fill="black"/>
</svg>
