<svg width="9" height="18" viewBox="0 0 9 18" fill="none" xmlns="http://www.w3.org/2000/svg">
<path d="M8.85547 9.76953C8.85547 9.88672 8.83203 9.99805 8.78516 10.1035C8.74219 10.2051 8.67188 10.3027 8.57422 10.3965L4.06836 14.8086C3.91602 14.957 3.73047 15.0312 3.51172 15.0312C3.37109 15.0312 3.24023 14.9961 3.11914 14.9258C2.99805 14.8555 2.90039 14.7617 2.82617 14.6445C2.75586 14.5273 2.7207 14.3945 2.7207 14.2461C2.7207 14.0312 2.80273 13.8398 2.9668 13.6719L6.98047 9.76953L2.9668 5.86719C2.80273 5.70312 2.7207 5.51172 2.7207 5.29297C2.7207 5.14844 2.75586 5.01758 2.82617 4.90039C2.90039 4.7793 2.99805 4.68359 3.11914 4.61328C3.24023 4.54297 3.37109 4.50781 3.51172 4.50781C3.73047 4.50781 3.91602 4.58203 4.06836 4.73047L8.57422 9.14258C8.66797 9.23633 8.73828 9.33398 8.78516 9.43555C8.83203 9.53711 8.85547 9.64844 8.85547 9.76953Z" fill="black"/>
</svg>
