<svg width="9" height="18" viewBox="0 0 9 18" fill="none" xmlns="http://www.w3.org/2000/svg">
<path d="M8.25586 9.76953C8.25586 9.87109 8.23633 9.96484 8.19727 10.0508C8.1582 10.1367 8.09961 10.2188 8.02148 10.2969L3.45703 14.7617C3.32812 14.8945 3.16797 14.9609 2.97656 14.9609C2.85156 14.9609 2.73633 14.9297 2.63086 14.8672C2.52539 14.8086 2.44141 14.7266 2.37891 14.6211C2.32031 14.5195 2.29102 14.4062 2.29102 14.2812C2.29102 14.0938 2.36133 13.9277 2.50195 13.7832L6.61523 9.76953L2.50195 5.75586C2.36133 5.61133 2.29102 5.44727 2.29102 5.26367C2.29102 5.13477 2.32031 5.01953 2.37891 4.91797C2.44141 4.81641 2.52539 4.73633 2.63086 4.67773C2.73633 4.61523 2.85156 4.58398 2.97656 4.58398C3.16797 4.58398 3.32812 4.64844 3.45703 4.77734L8.02148 9.24219C8.09961 9.32031 8.1582 9.40234 8.19727 9.48828C8.23633 9.57422 8.25586 9.66797 8.25586 9.76953Z" fill="black"/>
</svg>
