<svg width="20" height="20" viewBox="0 0 20 20" fill="none" xmlns="http://www.w3.org/2000/svg">
<path d="M16.2988 8.6499C15.918 8.6499 15.6323 8.35693 15.6323 7.96875V7.35352L15.7861 4.79736L13.8525 6.82617L11.604 9.09668C11.4795 9.22852 11.311 9.28711 11.1353 9.28711C10.7251 9.28711 10.4102 9.01611 10.4102 8.60596C10.4102 8.4082 10.4834 8.23242 10.6152 8.10059L12.8711 5.84473L14.9072 3.91846L12.3438 4.06494H11.7285C11.3403 4.06494 11.04 3.79395 11.04 3.39844C11.04 3.00293 11.3403 2.72461 11.7285 2.72461H15.7935C16.5405 2.72461 16.98 3.15674 16.98 3.90381V7.96875C16.98 8.34961 16.6943 8.6499 16.2988 8.6499ZM8.26416 16.6992H4.19922C3.45215 16.6992 3.02002 16.2671 3.02002 15.52V11.4551C3.02002 11.0742 3.30566 10.7739 3.69385 10.7739C4.08203 10.7739 4.36035 11.0669 4.36035 11.4551V12.0703L4.21387 14.6265L6.14014 12.5977L8.396 10.3271C8.52051 10.1953 8.68164 10.1367 8.85742 10.1367C9.2749 10.1367 9.58252 10.4077 9.58252 10.8179C9.58252 11.0156 9.5166 11.1914 9.38477 11.3232L7.12158 13.5791L5.09277 15.5054L7.65625 15.3589H8.26416C8.65234 15.3589 8.95264 15.6299 8.95264 16.0254C8.95264 16.4209 8.65967 16.6992 8.26416 16.6992Z" fill="currentcolor"/>
</svg>
