<svg width="20" height="20" viewBox="0 0 20 20" fill="none" xmlns="http://www.w3.org/2000/svg">
<path d="M14.6947 4.70561C12.9534 2.96501 10.1307 2.96465 8.39061 4.70542C8.1173 4.97884 7.67408 4.97893 7.40066 4.70561C7.12724 4.4323 7.12716 3.98908 7.40047 3.71566C9.6877 1.42755 13.3968 1.42874 15.6844 3.71547C17.9724 6.00258 17.9723 9.71176 15.6845 11.9995C15.4111 12.2729 14.9679 12.2729 14.6946 11.9995C14.4212 11.7261 14.4212 11.2829 14.6946 11.0096C16.4357 9.26844 16.4356 6.44584 14.6947 4.70561Z" fill="black"/>
<path fill-rule="evenodd" clip-rule="evenodd" d="M8.71834 10.6935C8.60566 10.4911 8.48359 10.3551 8.34771 10.2686C8.21334 10.1831 8.05238 10.1377 7.84694 10.1377C7.54008 10.1377 7.29713 10.2624 7.12557 10.4901C6.94982 10.7233 6.83959 11.0783 6.83959 11.5461C6.83959 12.0209 6.95101 12.3756 7.12637 12.6068C7.29756 12.8326 7.5393 12.9545 7.84238 12.9545C8.06515 12.9545 8.23207 12.9038 8.36541 12.819C8.50029 12.7332 8.61361 12.6043 8.71516 12.4281L8.71606 12.4266C8.79597 12.291 8.88214 12.1754 8.99644 12.0966C9.1165 12.0137 9.2488 11.9838 9.39642 11.9838C9.5731 11.9838 9.74008 12.044 9.86438 12.1609C9.98998 12.279 10.0616 12.4454 10.0616 12.6353C10.0616 12.7489 10.0375 12.8698 9.97796 13.001C9.67157 13.7485 8.78787 14.2438 7.82871 14.2438C7.07859 14.2438 6.44425 13.9886 5.99831 13.5126C5.55354 13.0378 5.31326 12.3619 5.31326 11.5506C5.31326 10.7443 5.55105 10.0655 5.99273 9.5864C6.43588 9.10569 7.06808 8.8438 7.81959 8.8438C8.81719 8.8438 9.70752 9.35632 9.97638 10.1302C10.025 10.246 10.0479 10.3642 10.0479 10.4706C10.0479 10.6609 9.97585 10.8263 9.84774 10.9426C9.72163 11.0571 9.55381 11.113 9.37819 11.113C9.23477 11.113 9.10424 11.0829 8.98748 11.0056C8.87384 10.9304 8.7897 10.8209 8.71834 10.6935Z" fill="black"/>
<path fill-rule="evenodd" clip-rule="evenodd" d="M2 11.5411C2 8.30568 4.62282 5.68286 7.85822 5.68286C11.0936 5.68286 13.7164 8.30568 13.7164 11.5411C13.7164 14.7765 11.0936 17.3993 7.85822 17.3993C4.62282 17.3993 2 14.7765 2 11.5411ZM7.85822 7.08286C5.39601 7.08286 3.4 9.07888 3.4 11.5411C3.4 14.0033 5.39601 15.9993 7.85822 15.9993C10.3204 15.9993 12.3164 14.0033 12.3164 11.5411C12.3164 9.07888 10.3204 7.08286 7.85822 7.08286Z" fill="black"/>
</svg>
