<svg width="20" height="20" viewBox="0 0 20 20" fill="none" xmlns="http://www.w3.org/2000/svg">
<path d="M3.72266 16.5527C2.14062 16.5527 1.32031 15.7397 1.32031 14.1797V5.25879C1.32031 3.69141 2.14062 2.88574 3.72266 2.88574H16.269C17.8511 2.88574 18.6714 3.69873 18.6714 5.25879V14.1797C18.6714 15.7397 17.8511 16.5527 16.269 16.5527H3.72266ZM2.75586 5.3833V13.2202L4.77734 11.4038C5.08496 11.1255 5.38525 10.9937 5.72217 10.9937C6.06641 10.9937 6.40332 11.1401 6.71094 11.4111L8.06592 12.6343L11.3691 9.67529C11.7061 9.38232 12.0649 9.24316 12.4678 9.24316C12.856 9.24316 13.2441 9.38965 13.5664 9.68994L17.2358 13.125V5.3833C17.2358 4.67285 16.855 4.31396 16.1812 4.31396H3.81055C3.12939 4.31396 2.75586 4.67285 2.75586 5.3833ZM6.99658 9.85107C6.02246 9.85107 5.23877 9.06006 5.23877 8.09326C5.23877 7.13379 6.02246 6.33545 6.99658 6.33545C7.95605 6.33545 8.74707 7.13379 8.74707 8.09326C8.74707 9.06006 7.95605 9.85107 6.99658 9.85107Z" fill="black"/>
</svg>
