<svg width="20" height="20" viewBox="0 0 20 20" fill="none" xmlns="http://www.w3.org/2000/svg">
<path fill-rule="evenodd" clip-rule="evenodd" d="M7.05813 6.36259L9.11979 2.3389C9.35764 1.87471 9.93269 1.68822 10.4042 1.92236C10.5893 2.01429 10.7391 2.16295 10.8309 2.34594L12.7779 6.22633C12.937 6.54332 13.2479 6.75975 13.6045 6.80168L17.6818 7.28101C18.2353 7.34609 18.6304 7.84057 18.5643 8.38548C18.5371 8.60991 18.433 8.81848 18.2691 8.9768L15.0465 12.0907C14.9164 12.2165 14.8533 12.3948 14.876 12.5729L15.4116 16.7768C15.4882 17.3787 15.0548 17.9277 14.4434 18.0032C14.2118 18.0318 13.9768 17.9881 13.7717 17.8783L10.3669 16.0556C10.1205 15.9237 9.82398 15.92 9.57426 16.0455L6.04663 17.8188C5.55015 18.0683 4.94218 17.8744 4.68867 17.3857C4.59382 17.2028 4.55884 16.9955 4.58855 16.7923L4.87049 14.8635C5.00839 13.9201 5.60396 13.1018 6.467 12.6699L10.385 10.7092C10.4896 10.6568 10.5313 10.5309 10.4782 10.4279C10.437 10.3481 10.3487 10.303 10.2587 10.3156L5.467 10.9882C4.7345 11.091 3.99164 10.8884 3.41733 10.4291L1.82132 9.15276C1.36586 8.78853 1.29657 8.12979 1.66655 7.68142C1.8386 7.47291 2.08555 7.33757 2.35621 7.30343L6.44792 6.7874C6.71035 6.7543 6.93898 6.59514 7.05813 6.36259Z" fill="white"/>
</svg>
