<svg width="20" height="20" viewBox="0 0 20 20" fill="none" xmlns="http://www.w3.org/2000/svg">
<path d="M13.3325 9.75195C11.9297 9.75195 10.7617 8.50781 10.7617 6.92725C10.7617 5.38477 11.936 4.15332 13.3325 4.15332C14.729 4.15332 15.9097 5.36572 15.9097 6.91455C15.9097 8.50781 14.7354 9.75195 13.3325 9.75195ZM5.97559 9.8916C4.75684 9.8916 3.73486 8.80615 3.73486 7.43506C3.73486 6.08936 4.76318 5.02295 5.97559 5.02295C7.18799 5.02295 8.22266 6.07031 8.22266 7.42871C8.22266 8.80615 7.19434 9.8916 5.97559 9.8916ZM2.50342 15.6743C1.61475 15.6743 1.29102 15.2935 1.29102 14.627C1.29102 12.9321 3.15723 10.8564 5.97559 10.8564C7.09277 10.8564 8.00684 11.1802 8.69873 11.6182C7.22607 12.7861 6.52783 14.6968 7.21338 15.6743H2.50342ZM9.39697 15.6743C8.31787 15.6743 7.95605 15.3379 7.95605 14.7349C7.95605 13.1035 10.0381 10.8691 13.3325 10.8691C16.6206 10.8691 18.709 13.1035 18.709 14.7349C18.709 15.3379 18.3408 15.6743 17.2681 15.6743H9.39697Z" fill="black"/>
</svg>
