<svg width="20" height="20" viewBox="0 0 20 20" fill="none" xmlns="http://www.w3.org/2000/svg">
<path d="M15.6617 14.231C15.9693 14.5386 15.9693 15.066 15.6544 15.3809C15.3394 15.7032 14.8121 15.6959 14.4971 15.3883L9.99274 10.8839L5.48835 15.3883C5.18806 15.6885 4.65339 15.6959 4.33112 15.3809C4.01618 15.0733 4.02351 14.5313 4.33112 14.231L8.83552 9.71931L4.33112 5.21491C4.02351 4.91462 4.02351 4.37995 4.33112 4.05769C4.64607 3.74274 5.18806 3.75007 5.48835 4.05769L9.99274 8.56208L14.4971 4.05769C14.8194 3.74274 15.3394 3.75007 15.6544 4.06501C15.9766 4.37263 15.9693 4.9073 15.6617 5.21491L11.1573 9.71931L15.6617 14.231Z" fill="white"/>
</svg>
