<svg width="14" height="24" viewBox="0 0 14 24" fill="none" xmlns="http://www.w3.org/2000/svg">
<path d="M12.6338 12.6543C12.6338 12.8066 12.6045 12.9473 12.5459 13.0762C12.4873 13.2051 12.3994 13.3281 12.2822 13.4453L5.43555 20.1426C5.24219 20.3418 5.00195 20.4414 4.71484 20.4414C4.52734 20.4414 4.35449 20.3945 4.19629 20.3008C4.03809 20.2129 3.91211 20.0898 3.81836 19.9316C3.73047 19.7793 3.68652 19.6094 3.68652 19.4219C3.68652 19.1406 3.79199 18.8916 4.00293 18.6748L10.1729 12.6543L4.00293 6.63379C3.79199 6.41699 3.68652 6.1709 3.68652 5.89551C3.68652 5.70215 3.73047 5.5293 3.81836 5.37695C3.91211 5.22461 4.03809 5.10449 4.19629 5.0166C4.35449 4.92285 4.52734 4.87598 4.71484 4.87598C5.00195 4.87598 5.24219 4.97266 5.43555 5.16602L12.2822 11.8633C12.3994 11.9805 12.4873 12.1035 12.5459 12.2324C12.6045 12.3613 12.6338 12.502 12.6338 12.6543Z" fill="black"/>
</svg>
