<svg width="8" height="13" viewBox="0 0 8 13" fill="none" xmlns="http://www.w3.org/2000/svg">
<path d="M7.12988 6.47461C7.12988 6.55924 7.11361 6.63737 7.08105 6.70898C7.0485 6.7806 6.99967 6.84896 6.93457 6.91406L3.13086 10.6348C3.02344 10.7454 2.88997 10.8008 2.73047 10.8008C2.6263 10.8008 2.53027 10.7747 2.44238 10.7227C2.35449 10.6738 2.28451 10.6055 2.23242 10.5176C2.18359 10.4329 2.15918 10.3385 2.15918 10.2344C2.15918 10.0781 2.21777 9.93978 2.33496 9.81934L5.7627 6.47461L2.33496 3.12988C2.21777 3.00944 2.15918 2.87272 2.15918 2.71973C2.15918 2.6123 2.18359 2.51628 2.23242 2.43164C2.28451 2.34701 2.35449 2.28027 2.44238 2.23145C2.53027 2.17936 2.6263 2.15332 2.73047 2.15332C2.88997 2.15332 3.02344 2.20703 3.13086 2.31445L6.93457 6.03516C6.99967 6.10026 7.0485 6.16862 7.08105 6.24023C7.11361 6.31185 7.12988 6.38997 7.12988 6.47461Z" fill="black"/>
</svg>
