<svg width="16" height="16" viewBox="0 0 16 16" fill="none" xmlns="http://www.w3.org/2000/svg">
<path d="M11.8555 7.99219C11.8555 8.23242 11.7734 8.43164 11.5801 8.61914L7.06836 13.0312C6.91602 13.1836 6.73438 13.2598 6.51758 13.2598C6.07812 13.2598 5.7207 12.9082 5.7207 12.4688C5.7207 12.2461 5.81445 12.0527 5.97266 11.8945L9.98047 7.98633L5.97266 4.08984C5.81445 3.93164 5.7207 3.73242 5.7207 3.51562C5.7207 3.07617 6.07812 2.73047 6.51758 2.73047C6.73438 2.73047 6.91602 2.80078 7.06836 2.95312L11.5801 7.36523C11.7676 7.55273 11.8555 7.75195 11.8555 7.99219Z" fill="#007AFF"/>
</svg>
