<svg width="15" height="28" viewBox="0 0 15 28" fill="none" xmlns="http://www.w3.org/2000/svg">
<path d="M14.4258 14.9492C14.4258 15.1445 14.3867 15.3301 14.3086 15.5059C14.237 15.6751 14.1198 15.8379 13.957 15.9941L6.44727 23.3477C6.19336 23.5951 5.88411 23.7188 5.51953 23.7188C5.28516 23.7188 5.06706 23.6602 4.86523 23.543C4.66341 23.4258 4.50065 23.2695 4.37695 23.0742C4.25977 22.8789 4.20117 22.6576 4.20117 22.4102C4.20117 22.0521 4.33789 21.7331 4.61133 21.4531L11.3008 14.9492L4.61133 8.44531C4.33789 8.17188 4.20117 7.85286 4.20117 7.48828C4.20117 7.2474 4.25977 7.0293 4.37695 6.83398C4.50065 6.63216 4.66341 6.47266 4.86523 6.35547C5.06706 6.23828 5.28516 6.17969 5.51953 6.17969C5.88411 6.17969 6.19336 6.30339 6.44727 6.55078L13.957 13.9043C14.1133 14.0605 14.2305 14.2233 14.3086 14.3926C14.3867 14.5618 14.4258 14.7474 14.4258 14.9492Z" fill="black"/>
</svg>
