<svg width="15" height="28" viewBox="0 0 15 28" fill="none" xmlns="http://www.w3.org/2000/svg">
<path d="M13.7598 14.9492C13.7598 15.1185 13.7272 15.2747 13.6621 15.418C13.597 15.5612 13.4993 15.6979 13.3691 15.8281L5.76172 23.2695C5.54688 23.4909 5.27995 23.6016 4.96094 23.6016C4.7526 23.6016 4.56055 23.5495 4.38477 23.4453C4.20898 23.3477 4.06901 23.2109 3.96484 23.0352C3.86719 22.8659 3.81836 22.6771 3.81836 22.4688C3.81836 22.1562 3.93555 21.8796 4.16992 21.6387L11.0254 14.9492L4.16992 8.25977C3.93555 8.01888 3.81836 7.74544 3.81836 7.43945C3.81836 7.22461 3.86719 7.03255 3.96484 6.86328C4.06901 6.69401 4.20898 6.56055 4.38477 6.46289C4.56055 6.35872 4.7526 6.30664 4.96094 6.30664C5.27995 6.30664 5.54688 6.41406 5.76172 6.62891L13.3691 14.0703C13.4993 14.2005 13.597 14.3372 13.6621 14.4805C13.7272 14.6237 13.7598 14.7799 13.7598 14.9492Z" fill="black"/>
</svg>
