<svg width="30" height="30" viewBox="0 0 30 30" fill="none" xmlns="http://www.w3.org/2000/svg">
<rect width="30" height="30" rx="8" fill="#32ADE6"/>
<path d="M22.0996 13C22.9393 13 23.3598 12.9998 23.6807 13.1631C23.9629 13.3069 24.1931 13.5371 24.3369 13.8193C24.5002 14.1402 24.5 14.5607 24.5 15.4004V16.5996C24.5 18.8398 24.5004 19.9608 24.0645 20.8164C23.681 21.5689 23.0689 22.181 22.3164 22.5645C21.4608 23.0004 20.3398 23 18.0996 23H11.9004C9.66018 23 8.53924 23.0004 7.68359 22.5645C6.93109 22.181 6.31902 21.5689 5.93555 20.8164C5.49957 19.9608 5.5 18.8398 5.5 16.5996V15.4004C5.5 14.5607 5.49981 14.1402 5.66309 13.8193C5.8069 13.5371 6.03709 13.3069 6.31934 13.1631C6.64015 12.9998 7.06068 13 7.90039 13H22.0996ZM11.4199 6.00488C12.1024 6.04192 12.752 6.31022 13.2607 6.7666L13.7393 7.2334C14.248 7.68978 14.8976 7.95808 15.5801 7.99512C15.6613 7.99952 15.7455 8 15.9141 8H21.5645C22.436 8 22.8719 8.00022 23.2188 8.13379C23.7463 8.33695 24.163 8.75375 24.3662 9.28125C24.4998 9.62812 24.5 10.064 24.5 10.9355C24.5 11.1534 24.5001 11.2629 24.4668 11.3496C24.416 11.4815 24.3116 11.5859 24.1797 11.6367C24.093 11.6701 23.9836 11.6699 23.7656 11.6699H6.2998C6.02011 11.6699 5.88034 11.6696 5.77344 11.6152C5.67951 11.5674 5.60264 11.4913 5.55469 11.3975C5.5002 11.2905 5.5 11.1501 5.5 10.8701V10.7998C5.5 9.11978 5.50018 8.27941 5.82715 7.6377C6.11472 7.07347 6.57347 6.61472 7.1377 6.32715C7.77941 6.00018 8.61978 6 10.2998 6H11.0859C11.2545 6 11.3387 6.00048 11.4199 6.00488Z" fill="white"/>
</svg>
