<svg width="30" height="30" viewBox="0 0 30 30" fill="none" xmlns="http://www.w3.org/2000/svg">
<rect width="30" height="30" rx="8" fill="#FF9500"/>
<path d="M18.4053 6.00391C18.6485 5.99961 18.9139 6 19.2002 6H21.7998C22.0857 6 22.3508 5.99962 22.5938 6.00391C22.629 6.00222 22.6645 6 22.7002 6H23V6.01855C23.0673 6.0221 23.1325 6.02514 23.1953 6.03027C23.5906 6.06258 23.984 6.1344 24.3623 6.32715C24.9265 6.61472 25.3853 7.07347 25.6729 7.6377C25.8656 8.01599 25.9374 8.40943 25.9697 8.80469C26.0011 9.18836 26 9.65664 26 10.2002V19.7998C26 20.3434 26.0011 20.8116 25.9697 21.1953C25.9374 21.5906 25.8656 21.984 25.6729 22.3623C25.3853 22.9265 24.9265 23.3853 24.3623 23.6729C23.984 23.8656 23.5906 23.9374 23.1953 23.9697C22.8116 24.0011 22.3434 24 21.7998 24H19.2002C18.6566 24 18.1884 24.0011 17.8047 23.9697C17.4094 23.9374 17.016 23.8656 16.6377 23.6729C16.0735 23.3853 15.6147 22.9265 15.3271 22.3623C15.1344 21.984 15.0626 21.5906 15.0303 21.1953C14.9989 20.8116 15 20.3434 15 19.7998V10.2002C15 9.65664 14.9989 9.18836 15.0303 8.80469C15.0626 8.40943 15.1344 8.01599 15.3271 7.6377C15.6147 7.07347 16.0735 6.61472 16.6377 6.32715C17.016 6.1344 17.4094 6.06258 17.8047 6.03027C17.8675 6.02514 17.9327 6.0221 18 6.01855V6H18.2998C18.3352 6 18.3703 6.00225 18.4053 6.00391ZM14.1455 8C14.0391 8.49805 14.0108 9.11667 14.0039 10H9.2002C8.62364 10 8.25111 10.0013 7.96777 10.0244C7.69619 10.0466 7.59534 10.0842 7.5459 10.1094C7.35793 10.2052 7.20521 10.3579 7.10938 10.5459C7.08419 10.5953 7.04661 10.6962 7.02441 10.9678C7.00126 11.2511 7 11.6236 7 12.2002V20H14.0039C14.0108 20.8833 14.0391 21.5019 14.1455 22H4.5C3.67157 22 3 21.3284 3 20.5C3 20.2239 3.22386 20 3.5 20H5V12.2002C5 11.6566 4.99893 11.1884 5.03027 10.8047C5.06258 10.4094 5.1344 10.016 5.32715 9.6377C5.61472 9.07347 6.07347 8.61472 6.6377 8.32715C7.01599 8.1344 7.40943 8.06258 7.80469 8.03027C8.18836 7.99893 8.65664 8 9.2002 8H14.1455ZM22.6494 8.00684C22.5635 8.02938 22.5 8.10731 22.5 8.2002C22.4999 8.91801 21.918 9.49989 21.2002 9.5H19.7998C19.082 9.49989 18.5001 8.91801 18.5 8.2002C18.5 8.10698 18.4359 8.02906 18.3496 8.00684C18.204 8.01043 18.079 8.01533 17.9678 8.02441C17.6962 8.04661 17.5953 8.08419 17.5459 8.10938C17.3579 8.20521 17.2052 8.35793 17.1094 8.5459C17.0842 8.59534 17.0466 8.69619 17.0244 8.96777C17.0013 9.25111 17 9.62364 17 10.2002V19.7998C17 20.3764 17.0013 20.7489 17.0244 21.0322C17.0466 21.3038 17.0842 21.4047 17.1094 21.4541C17.2052 21.6421 17.3579 21.7948 17.5459 21.8906C17.5953 21.9158 17.6962 21.9534 17.9678 21.9756C18.2511 21.9987 18.6236 22 19.2002 22H21.7998C22.3764 22 22.7489 21.9987 23.0322 21.9756C23.3038 21.9534 23.4047 21.9158 23.4541 21.8906C23.6421 21.7948 23.7948 21.6421 23.8906 21.4541C23.9158 21.4047 23.9534 21.3038 23.9756 21.0322C23.9987 20.7489 24 20.3764 24 19.7998V10.2002C24 9.62364 23.9987 9.25111 23.9756 8.96777C23.9534 8.69619 23.9158 8.59534 23.8906 8.5459C23.7948 8.35793 23.6421 8.20521 23.4541 8.10938C23.4047 8.08419 23.3038 8.04661 23.0322 8.02441C22.9208 8.01531 22.7955 8.01042 22.6494 8.00684Z" fill="white"/>
</svg>
