<svg width="30" height="30" viewBox="0 0 30 30" fill="none" xmlns="http://www.w3.org/2000/svg">
<rect width="30" height="30" rx="8" fill="#34C759"/>
<path fill-rule="evenodd" clip-rule="evenodd" d="M19.9587 5C19.4566 5 19.0496 5.40701 19.0496 5.90909C19.0496 6.41117 19.4566 6.81818 19.9587 6.81818H21.8666L15.0164 13.5405C14.9856 13.5707 14.9369 13.5722 14.9043 13.5439L11.6999 10.765C10.9853 10.1453 9.92379 10.1453 9.20919 10.765L5.3135 14.1434C4.93419 14.4724 4.89336 15.0465 5.2223 15.4259C5.55125 15.8052 6.1254 15.846 6.50471 15.517L10.4004 12.1386C10.4315 12.1117 10.4776 12.1117 10.5087 12.1386L13.7131 14.9175C14.4615 15.5666 15.5828 15.532 16.2898 14.8382L23.1818 8.07491V10.0585C23.1818 10.5605 23.5888 10.9676 24.0909 10.9676C24.593 10.9676 25 10.5605 25 10.0585V5.90909C25 5.40701 24.593 5 24.0909 5H19.9587ZM9.21489 24.9962H20.7851C21.9423 24.9962 22.5208 24.9962 22.9628 24.771C23.3516 24.573 23.6676 24.2569 23.8657 23.8681C24.0909 23.4261 24.0909 22.8476 24.0909 21.6904V13.7836C24.0909 13.0554 23.5006 12.4651 22.7725 12.4651C22.4258 12.4651 22.0931 12.6017 21.8463 12.8452L16.3599 18.2599C15.8822 18.7313 15.6434 18.9671 15.3677 19.0581C15.1251 19.1381 14.8637 19.1413 14.6192 19.0671C14.3415 18.9828 14.097 18.7529 13.608 18.2932L11.7799 16.5743C11.3122 16.1346 11.0784 15.9147 10.811 15.8293C10.5756 15.7541 10.323 15.7509 10.0858 15.8203C9.81637 15.8991 9.57716 16.1131 9.09874 16.5411L7.23112 18.2119C6.74439 18.6473 6.50103 18.865 6.32644 19.1265C6.17171 19.3583 6.05715 19.6145 5.98759 19.8843C5.9091 20.1888 5.9091 20.5153 5.9091 21.1684V21.6904C5.9091 22.8476 5.9091 23.4261 6.1343 23.8681C6.33238 24.2569 6.64846 24.573 7.03722 24.771C7.47919 24.9962 8.05775 24.9962 9.21489 24.9962Z" fill="white"/>
</svg>
