<svg width="30" height="30" viewBox="0 0 30 30" fill="none" xmlns="http://www.w3.org/2000/svg">
<rect width="30" height="30" rx="8" fill="#FF3B30"/>
<path d="M17.4998 22C17.4998 23.3807 16.3805 24.5 14.9998 24.5C13.6191 24.4999 12.4998 23.3807 12.4998 22H17.4998ZM14.9998 5C15.8343 5 16.6023 5.42903 17.0447 6.12305C16.1929 6.99394 15.6677 8.18558 15.6677 9.5C15.6677 12.1675 17.8303 14.3301 20.4978 14.3301C20.8832 14.3301 21.2576 14.2826 21.6169 14.1973L21.8201 16.2236C21.9349 17.372 22.4435 18.4456 23.2595 19.2617L23.2908 19.293C23.9205 19.9229 23.4744 20.9998 22.5837 21H7.41187C6.52101 21 6.07492 19.9229 6.70483 19.293L6.73608 19.2617C7.55201 18.4456 8.06071 17.3719 8.17554 16.2236L8.72729 10.7021C8.89058 9.07093 10.0328 7.70406 11.6091 7.25391L12.0876 7.11816C12.3504 7.04313 12.5699 6.86063 12.6921 6.61621L12.8289 6.3418C13.24 5.5196 14.0805 5.00007 14.9998 5ZM20.4978 6C22.4308 6.00006 23.9978 7.56704 23.9978 9.5C23.9978 11.3379 22.5809 12.8425 20.78 12.9863C20.7631 12.9877 20.7462 12.9891 20.7292 12.9902C20.6527 12.9952 20.5756 13 20.4978 13C19.5313 13 18.6566 12.608 18.0232 11.9746C17.8252 11.7766 17.6508 11.5551 17.5046 11.3145C17.1832 10.7853 16.9978 10.1644 16.9978 9.5C16.9978 9.38534 17.0036 9.27199 17.0144 9.16016C17.0192 9.11068 17.0252 9.06155 17.032 9.0127C17.0335 9.00197 17.0343 8.99116 17.0359 8.98047C17.0401 8.9523 17.0457 8.92443 17.0505 8.89648C17.0555 8.86811 17.0596 8.83965 17.0652 8.81152C17.0699 8.78794 17.0756 8.76462 17.0808 8.74121C17.0879 8.70922 17.0944 8.67716 17.1023 8.64551C17.1099 8.61536 17.1184 8.5855 17.1267 8.55566C17.1326 8.53471 17.139 8.51396 17.1453 8.49316C17.171 8.40737 17.2002 8.32312 17.2322 8.24023C17.2399 8.22031 17.2476 8.20041 17.2556 8.18066C17.2911 8.09359 17.3297 8.00821 17.3718 7.9248C17.3788 7.91089 17.3851 7.89662 17.3923 7.88281C17.4351 7.80088 17.4821 7.72152 17.531 7.64355C17.5373 7.63352 17.5432 7.62324 17.5496 7.61328C17.6006 7.53363 17.6545 7.45592 17.7117 7.38086C17.72 7.36998 17.7286 7.35941 17.7371 7.34863C17.7955 7.27371 17.8564 7.20072 17.9207 7.13086C17.9231 7.12815 17.926 7.12575 17.9285 7.12305C18.5678 6.43233 19.4824 6 20.4978 6Z" fill="white"/>
</svg>
