<svg width="30" height="30" viewBox="0 0 30 30" fill="none" xmlns="http://www.w3.org/2000/svg">
<rect width="30" height="30" rx="8" fill="#007AFF"/>
<path fill-rule="evenodd" clip-rule="evenodd" d="M14.9231 5.5C12.629 5.5 10.7692 7.35974 10.7692 9.65385V12.2522C9.99985 12.2606 9.54611 12.2999 9.18127 12.4858C8.77419 12.6932 8.44322 13.0242 8.2358 13.4313C8 13.8941 8 14.4999 8 15.7115V20.0385C8 21.2501 8 21.8559 8.2358 22.3187C8.44322 22.7258 8.77419 23.0568 9.18127 23.2642C9.64406 23.5 10.2499 23.5 11.4615 23.5H18.3846C19.5963 23.5 20.2021 23.5 20.6649 23.2642C21.072 23.0568 21.4029 22.7258 21.6103 22.3187C21.8462 21.8559 21.8462 21.2501 21.8462 20.0385V15.7115C21.8462 14.4999 21.8462 13.8941 21.6103 13.4313C21.4029 13.0242 21.072 12.6932 20.6649 12.4858C20.3 12.2999 19.8463 12.2606 19.0769 12.2522V9.65385C19.0769 7.35974 17.2172 5.5 14.9231 5.5ZM17.6923 12.25V9.65385C17.6923 8.12444 16.4525 6.88462 14.9231 6.88462C13.3937 6.88462 12.1538 8.12444 12.1538 9.65385V12.25H17.6923Z" fill="white"/>
</svg>
