<svg width="30" height="30" viewBox="0 0 30 30" fill="none" xmlns="http://www.w3.org/2000/svg">
<rect width="30" height="30" rx="8" fill="#8E8E93"/>
<path d="M15 4.17004C18.2198 4.17004 20.8301 6.7803 20.8301 10.0001V13.4435C21.6687 13.875 22.3316 14.591 22.6953 15.4689C22.9998 16.204 23 17.1364 23 19.0001C23 20.8636 22.9997 21.7954 22.6953 22.5304C22.2893 23.5105 21.5104 24.2895 20.5303 24.6954C19.7952 24.9998 18.8635 25.0001 17 25.0001H13C11.1365 25.0001 10.2048 24.9998 9.46973 24.6954C8.48961 24.2895 7.71066 23.5105 7.30469 22.5304C7.00031 21.7954 7 20.8636 7 19.0001C7 17.1364 7.00021 16.204 7.30469 15.4689C7.66843 14.591 8.33126 13.875 9.16992 13.4435V10.0001C9.16992 6.7803 11.7802 4.17004 15 4.17004ZM15 5.8302C12.697 5.8302 10.8301 7.69709 10.8301 10.0001V13.0372C11.3848 13.0004 12.0785 13.0001 13 13.0001H17C17.9215 13.0001 18.6152 13.0004 19.1699 13.0372V10.0001C19.1699 7.69709 17.303 5.8302 15 5.8302Z" fill="white"/>
</svg>
