<svg width="30" height="30" viewBox="0 0 30 30" fill="none" xmlns="http://www.w3.org/2000/svg">
<rect width="30" height="30" rx="8" fill="#34C759"/>
<path fill-rule="evenodd" clip-rule="evenodd" d="M10.8689 19.1088C8.12459 16.363 6 12.9776 6 10.1629C6 8.91307 6.41311 7.7813 7.35738 6.86605C7.92787 6.30508 8.59672 6 9.21639 6C9.74754 6 10.2295 6.21651 10.5738 6.69874L12.2441 9.39887C12.7491 10.2153 12.7002 11.2581 12.1212 12.0238L10.94 13.5855C10.8318 13.6937 10.7924 13.8118 10.7924 13.9398C10.7924 14.0579 10.8416 14.1858 10.8908 14.2941C11.176 14.8944 12.0318 15.9376 13.0351 16.9414C14.0285 17.9452 15.0908 18.7818 15.6711 19.0868C15.7793 19.1361 15.9072 19.1853 16.0449 19.1853C16.1826 19.1853 16.3105 19.1459 16.4187 19.0376L17.944 17.8652C18.7115 17.2752 19.7642 17.2227 20.5866 17.7333L23.341 19.4434C23.823 19.778 24 20.2307 24 20.7031C24 21.3625 23.6262 22.0514 23.1246 22.5828C22.2197 23.5571 21.118 24 19.8295 24C17.0164 24 13.6033 21.8447 10.8689 19.1088Z" fill="white"/>
</svg>
