<svg width="30" height="30" viewBox="0 0 30 30" fill="none" xmlns="http://www.w3.org/2000/svg">
<path d="M0 13.7143C0 8.91384 0 6.51361 0.93423 4.68008C1.756 3.06726 3.06726 1.756 4.68008 0.93423C6.51361 0 8.91384 0 13.7143 0H16.2857C21.0862 0 23.4864 0 25.3199 0.93423C26.9327 1.756 28.244 3.06726 29.0658 4.68008C30 6.51361 30 8.91384 30 13.7143V16.2857C30 21.0862 30 23.4864 29.0658 25.3199C28.244 26.9327 26.9327 28.244 25.3199 29.0658C23.4864 30 21.0862 30 16.2857 30H13.7143C8.91384 30 6.51361 30 4.68008 29.0658C3.06726 28.244 1.756 26.9327 0.93423 25.3199C0 23.4864 0 21.0862 0 16.2857V13.7143Z" fill="#34C759"/>
<path d="M21.4312 22.3316C21.8897 22.3317 22.2612 22.7032 22.2613 23.1617C22.2613 23.6202 21.8897 23.9917 21.4312 23.9918H8.58255C8.12396 23.9918 7.75247 23.6203 7.75247 23.1617C7.75253 22.7031 8.12399 22.3316 8.58255 22.3316H21.4312ZM14.5708 8.81012C14.8482 8.68661 15.1655 8.68668 15.4429 8.81012C15.7608 8.95174 16.0046 9.37324 16.4917 10.2164L18.1968 13.1685C18.4895 13.6752 18.6366 13.9287 18.8472 14.0679C19.0325 14.1904 19.2512 14.252 19.4732 14.2447C19.7255 14.2363 19.983 14.0973 20.4976 13.8189L20.9702 13.563C22.074 12.9658 22.6261 12.6674 23.0083 12.7457C23.3401 12.8138 23.6208 13.0345 23.7642 13.3414C23.9293 13.695 23.7669 14.3023 23.4419 15.5152L22.3882 19.4468C22.2663 19.9017 22.2054 20.1293 22.0757 20.2984C21.9612 20.4476 21.809 20.5643 21.6353 20.6363C21.4384 20.7177 21.2027 20.7173 20.732 20.7173H9.28372C8.81299 20.7173 8.57726 20.7178 8.3804 20.6363C8.20678 20.5644 8.0554 20.4475 7.94095 20.2984C7.81122 20.1293 7.75031 19.9016 7.62845 19.4468L6.57474 15.5152C6.24973 14.3023 6.08739 13.695 6.25247 13.3414C6.39585 13.0347 6.67571 12.8138 7.00735 12.7457C7.3896 12.6672 7.94206 12.9655 9.04642 13.563L9.5181 13.8189C10.0326 14.0973 10.2902 14.2362 10.5425 14.2447C10.7646 14.252 10.9841 14.1905 11.1695 14.0679C11.38 13.9286 11.5264 13.6751 11.8189 13.1685L13.523 10.2173C14.0099 9.37402 14.253 8.95187 14.5708 8.81012ZM6.94583 8.67047C7.72323 8.6705 8.35306 9.30127 8.35306 10.0787C8.35294 10.856 7.72315 11.4859 6.94583 11.4859C6.16849 11.4859 5.53872 10.856 5.5386 10.0787C5.5386 9.30126 6.16842 8.67047 6.94583 8.67047ZM23.0591 8.67047C23.8365 8.67047 24.4673 9.30126 24.4673 10.0787C24.4672 10.856 23.8365 11.4859 23.0591 11.4859C22.2819 11.4857 21.652 10.8559 21.6519 10.0787C21.6519 9.30137 22.2818 8.67065 23.0591 8.67047ZM14.9986 4.28571C15.7757 4.28588 16.4056 4.91581 16.4058 5.69293C16.4058 6.47024 15.7758 7.10096 14.9986 7.10114C14.2211 7.10114 13.5904 6.47035 13.5904 5.69293C13.5906 4.9157 14.2213 4.28571 14.9986 4.28571Z" fill="white"/>
</svg>
