<svg width="30" height="30" viewBox="0 0 30 30" fill="none" xmlns="http://www.w3.org/2000/svg">
<rect width="30" height="30" rx="8" fill="#8E8E93"/>
<path d="M7.58708 16.4777C6.28797 17.2446 7.37858 19.2258 8.82204 18.331L13.5694 14.3087C14.5157 13.7176 14.4676 12.3115 13.5694 11.7364L8.82204 7.73002C7.37858 6.83528 6.27193 8.78453 7.58708 9.5834L11.5646 13.0146L7.58708 16.4777Z" fill="white"/>
<path d="M13.5133 20.4001C13.5133 20.9913 13.9784 21.4706 14.5718 21.4706H21.9254C22.5349 21.4706 23 20.9913 23 20.4001C23 19.809 22.5349 19.3296 21.9254 19.3296H14.5718C13.9784 19.3296 13.5133 19.809 13.5133 20.4001Z" fill="white"/>
</svg>
