<svg width="30" height="30" viewBox="0 0 30 30" fill="none" xmlns="http://www.w3.org/2000/svg">
<rect width="30" height="30" rx="8" fill="#8E8E93"/>
<path d="M11.5781 6.73438C11.8125 6.73438 12.0104 6.76042 12.1719 6.8125C12.3906 6.88021 12.5521 6.98177 12.6562 7.11719C12.7604 7.2526 12.8125 7.41667 12.8125 7.60938C12.8125 7.99479 12.6406 8.23958 12.2969 8.34375C12.25 8.35938 12.1953 8.3724 12.1328 8.38281C12.0755 8.39323 12.0156 8.40365 11.9531 8.41406C11.349 8.46094 10.9245 8.63281 10.6797 8.92969C10.4349 9.22135 10.3125 9.70052 10.3125 10.3672V12.6406C10.3125 13.3229 10.1198 13.8594 9.73438 14.25C9.35417 14.6406 8.83073 14.8724 8.16406 14.9453C8.1276 14.9505 8.10938 14.9714 8.10938 15.0078C8.10938 15.0391 8.1276 15.0547 8.16406 15.0547C8.83073 15.1276 9.35417 15.362 9.73438 15.7578C10.1198 16.1484 10.3125 16.6849 10.3125 17.3672V19.6406C10.3125 20.3073 10.4349 20.7865 10.6797 21.0781C10.9245 21.375 11.349 21.5495 11.9531 21.6016C12.0052 21.6068 12.0547 21.612 12.1016 21.6172C12.1484 21.6276 12.1953 21.6406 12.2422 21.6562C12.6224 21.75 12.8125 21.9974 12.8125 22.3984C12.8125 22.5859 12.7578 22.75 12.6484 22.8906C12.5391 23.0365 12.3724 23.1406 12.1484 23.2031C11.987 23.2448 11.8151 23.2656 11.6328 23.2656C10.4714 23.2656 9.60938 22.9948 9.04688 22.4531C8.48438 21.9167 8.20312 21.0599 8.20312 19.8828V18.0469C8.20312 17.4427 8.09635 17 7.88281 16.7188C7.66927 16.4375 7.3099 16.25 6.80469 16.1562C6.49219 16.0885 6.25 15.9557 6.07812 15.7578C5.90625 15.5547 5.82031 15.2995 5.82031 14.9922C5.82031 14.6953 5.90625 14.4479 6.07812 14.25C6.25 14.0469 6.49219 13.9115 6.80469 13.8438C7.3099 13.75 7.66927 13.5625 7.88281 13.2812C8.09635 13 8.20312 12.5599 8.20312 11.9609V10.125C8.20312 8.95833 8.47917 8.10156 9.03125 7.55469C9.58854 7.00781 10.4375 6.73438 11.5781 6.73438ZM18.4219 6.73438C19.5625 6.73438 20.4089 7.00781 20.9609 7.55469C21.513 8.10156 21.7891 8.95833 21.7891 10.125V11.9609C21.7891 12.5599 21.8984 13 22.1172 13.2812C22.3359 13.5573 22.6953 13.7448 23.1953 13.8438C23.513 13.9115 23.7552 14.0469 23.9219 14.25C24.0938 14.4479 24.1797 14.6953 24.1797 14.9922C24.1797 15.2995 24.0938 15.5547 23.9219 15.7578C23.7552 15.9557 23.513 16.0885 23.1953 16.1562C22.6901 16.25 22.3281 16.4375 22.1094 16.7188C21.8958 17 21.7891 17.4427 21.7891 18.0469V19.8828C21.7891 21.0599 21.5104 21.9167 20.9531 22.4531C20.3958 22.9948 19.5339 23.2656 18.3672 23.2656C18.1849 23.2656 18.0156 23.2448 17.8594 23.2031C17.6354 23.151 17.4661 23.0521 17.3516 22.9062C17.2422 22.7604 17.1875 22.5911 17.1875 22.3984C17.1875 22.1901 17.2344 22.026 17.3281 21.9062C17.4271 21.7865 17.5703 21.7031 17.7578 21.6562C17.8047 21.6406 17.8516 21.6276 17.8984 21.6172C17.9453 21.612 17.9948 21.6068 18.0469 21.6016C18.651 21.5495 19.0755 21.375 19.3203 21.0781C19.5651 20.7865 19.6875 20.3073 19.6875 19.6406V17.3672C19.6875 16.6797 19.8776 16.1302 20.2578 15.7188C20.6432 15.3073 21.1693 15.0859 21.8359 15.0547C21.8724 15.0547 21.8906 15.0391 21.8906 15.0078C21.8906 14.9714 21.8724 14.9505 21.8359 14.9453C21.1693 14.9245 20.6432 14.7057 20.2578 14.2891C19.8776 13.8724 19.6875 13.3229 19.6875 12.6406V10.3672C19.6875 9.70052 19.5651 9.21875 19.3203 8.92188C19.0755 8.625 18.651 8.45573 18.0469 8.41406C17.9792 8.40365 17.9167 8.39583 17.8594 8.39062C17.8021 8.38021 17.7526 8.36458 17.7109 8.34375C17.362 8.22917 17.1875 7.98438 17.1875 7.60938C17.1875 7.41667 17.2396 7.2526 17.3438 7.11719C17.4479 6.98177 17.612 6.88021 17.8359 6.8125C17.9974 6.76042 18.1927 6.73438 18.4219 6.73438Z" fill="white"/>
</svg>
