<svg width="18" height="34" viewBox="0 0 18 34" fill="none" xmlns="http://www.w3.org/2000/svg">
<path d="M16.5117 18.5391C16.5117 18.7422 16.4727 18.9297 16.3945 19.1016C16.3164 19.2734 16.1992 19.4375 16.043 19.5938L6.91406 28.5234C6.65625 28.7891 6.33594 28.9219 5.95312 28.9219C5.70312 28.9219 5.47266 28.8594 5.26172 28.7344C5.05078 28.6172 4.88281 28.4531 4.75781 28.2422C4.64062 28.0391 4.58203 27.8125 4.58203 27.5625C4.58203 27.1875 4.72266 26.8555 5.00391 26.5664L13.2305 18.5391L5.00391 10.5117C4.72266 10.2227 4.58203 9.89453 4.58203 9.52734C4.58203 9.26953 4.64062 9.03906 4.75781 8.83594C4.88281 8.63281 5.05078 8.47266 5.26172 8.35547C5.47266 8.23047 5.70312 8.16797 5.95312 8.16797C6.33594 8.16797 6.65625 8.29688 6.91406 8.55469L16.043 17.4844C16.1992 17.6406 16.3164 17.8047 16.3945 17.9766C16.4727 18.1484 16.5117 18.3359 16.5117 18.5391Z" fill="black"/>
</svg>
