<svg width="28" height="28" viewBox="0 0 28 28" fill="none" xmlns="http://www.w3.org/2000/svg">
<path d="M14.8496 4.60938V7.61719C14.8496 8.08594 14.459 8.47656 13.9902 8.47656C13.5312 8.47656 13.1406 8.08594 13.1406 7.61719V4.60938C13.1406 4.15039 13.5312 3.75977 13.9902 3.75977C14.459 3.75977 14.8496 4.15039 14.8496 4.60938ZM17.9941 8.96484L20.1328 6.82617C20.4551 6.50391 21.002 6.50391 21.3242 6.82617C21.6562 7.1582 21.6562 7.70508 21.3242 8.03711L19.2051 10.166C18.873 10.4883 18.3164 10.4883 17.9941 10.166C17.6621 9.83398 17.6621 9.28711 17.9941 8.96484ZM8.78516 10.166L6.66602 8.02734C6.34375 7.69531 6.34375 7.14844 6.66602 6.82617C6.99805 6.50391 7.54492 6.51367 7.86719 6.83594L9.98633 8.96484C10.3086 9.28711 10.3086 9.83398 9.98633 10.166C9.6543 10.4883 9.10742 10.4883 8.78516 10.166ZM21.8809 23.6914L12.5742 14.3848C12.1348 13.9453 12.1445 13.2715 12.5645 12.832C12.9746 12.4023 13.6777 12.4023 14.1172 12.832L23.4238 22.1484C23.873 22.5879 23.8535 23.252 23.4336 23.6914C23.0332 24.1309 22.3301 24.1309 21.8809 23.6914ZM4.43945 13.3105H7.4668C7.92578 13.3105 8.31641 13.7012 8.31641 14.1602C8.31641 14.6191 7.92578 15.0098 7.4668 15.0098H4.43945C3.98047 15.0098 3.58984 14.6191 3.58984 14.1602C3.58984 13.7012 3.98047 13.3105 4.43945 13.3105ZM23.541 15.0098H20.5332C20.0742 15.0098 19.6836 14.6191 19.6836 14.1602C19.6836 13.7012 20.0742 13.3105 20.5332 13.3105H23.541C24.0098 13.3105 24.4004 13.7012 24.4004 14.1602C24.4004 14.6191 24.0098 15.0098 23.541 15.0098ZM16.0996 16.8457L16.5879 16.3672L13.668 13.4473C13.5312 13.3105 13.3164 13.3203 13.1895 13.4473C13.0527 13.584 13.0527 13.7891 13.1895 13.9258L16.0996 16.8457ZM6.65625 20.2832L8.78516 18.1738C9.10742 17.8418 9.67383 17.8418 9.98633 18.1738C10.3086 18.4961 10.3086 19.043 9.98633 19.3652L7.85742 21.4941C7.52539 21.8164 6.96875 21.8066 6.64648 21.4844C6.33398 21.1621 6.33398 20.6055 6.65625 20.2832ZM14.8496 20.7129V23.7207C14.8496 24.1797 14.459 24.5703 13.9902 24.5703C13.5312 24.5703 13.1406 24.1797 13.1406 23.7207V20.7129C13.1406 20.2441 13.5312 19.8535 13.9902 19.8535C14.459 19.8535 14.8496 20.2441 14.8496 20.7129Z" fill="black"/>
</svg>
