<svg width="28" height="28" viewBox="0 0 28 28" fill="none" xmlns="http://www.w3.org/2000/svg">
<path d="M8.07715 22.9893C6.03613 22.9893 5.01074 21.9834 5.01074 19.9717V8.03809C5.01074 6.02637 6.03613 5.01074 8.07715 5.01074H19.9229C21.9736 5.01074 22.9893 6.02637 22.9893 8.03809V19.9717C22.9893 21.9834 21.9736 22.9893 19.9229 22.9893H8.07715ZM8.09668 21.417H19.9033C20.8701 21.417 21.417 20.8994 21.417 19.8838V8.12598C21.417 7.11035 20.8701 6.58301 19.9033 6.58301H8.09668C7.12012 6.58301 6.58301 7.11035 6.58301 8.12598V19.8838C6.58301 20.8994 7.12012 21.417 8.09668 21.417Z" fill="black"/>
</svg>
