<svg width="9" height="18" viewBox="0 0 9 18" fill="none" xmlns="http://www.w3.org/2000/svg">
<path d="M8.03418 10.1221C8.03418 10.2295 8.0127 10.3315 7.96973 10.4282C7.93034 10.5213 7.86589 10.6108 7.77637 10.6968L3.646 14.7412C3.50635 14.8773 3.33626 14.9453 3.13574 14.9453C3.00684 14.9453 2.88688 14.9131 2.77588 14.8486C2.66488 14.7842 2.57536 14.6982 2.50732 14.5908C2.44287 14.4834 2.41064 14.3617 2.41064 14.2256C2.41064 14.0286 2.48584 13.8532 2.63623 13.6992L6.31543 10.1221L2.63623 6.54492C2.48584 6.39453 2.41064 6.21908 2.41064 6.01855C2.41064 5.88607 2.44287 5.76611 2.50732 5.65869C2.57536 5.54769 2.66488 5.45996 2.77588 5.39551C2.88688 5.33105 3.00684 5.29883 3.13574 5.29883C3.33626 5.29883 3.50635 5.36686 3.646 5.50293L7.77637 9.54736C7.8623 9.6333 7.92676 9.72282 7.96973 9.81592C8.0127 9.90902 8.03418 10.0111 8.03418 10.1221Z" fill="black"/>
</svg>
