<svg width="8" height="16" viewBox="0 0 8 16" fill="none" xmlns="http://www.w3.org/2000/svg">
<path d="M7.21289 8.47461C7.21289 8.57227 7.19336 8.66504 7.1543 8.75293C7.11849 8.83757 7.0599 8.91895 6.97852 8.99707L3.22363 12.6738C3.09668 12.7975 2.94206 12.8594 2.75977 12.8594C2.64258 12.8594 2.53353 12.8301 2.43262 12.7715C2.33171 12.7129 2.25033 12.6348 2.18848 12.5371C2.12988 12.4395 2.10059 12.3288 2.10059 12.2051C2.10059 12.026 2.16895 11.8665 2.30566 11.7266L5.65039 8.47461L2.30566 5.22266C2.16895 5.08594 2.10059 4.92643 2.10059 4.74414C2.10059 4.6237 2.12988 4.51465 2.18848 4.41699C2.25033 4.31608 2.33171 4.23633 2.43262 4.17773C2.53353 4.11914 2.64258 4.08984 2.75977 4.08984C2.94206 4.08984 3.09668 4.15169 3.22363 4.27539L6.97852 7.95215C7.05664 8.03027 7.11523 8.11165 7.1543 8.19629C7.19336 8.28092 7.21289 8.3737 7.21289 8.47461Z" fill="black"/>
</svg>
