<svg width="8" height="16" viewBox="0 0 8 16" fill="none" xmlns="http://www.w3.org/2000/svg">
<path d="M7.0127 8.47461C7.0127 8.53646 6.99967 8.59505 6.97363 8.65039C6.95085 8.70247 6.91667 8.7513 6.87109 8.79688L3.00391 12.5811C2.91602 12.6689 2.80859 12.7129 2.68164 12.7129C2.60026 12.7129 2.52539 12.6934 2.45703 12.6543C2.38867 12.6152 2.33496 12.5615 2.2959 12.4932C2.25684 12.4281 2.2373 12.3532 2.2373 12.2686C2.2373 12.1481 2.27962 12.0423 2.36426 11.9512L5.91895 8.47461L2.36426 4.99805C2.27962 4.9069 2.2373 4.80111 2.2373 4.68066C2.2373 4.59603 2.25684 4.52116 2.2959 4.45605C2.33496 4.3877 2.38867 4.33398 2.45703 4.29492C2.52539 4.25586 2.60026 4.23633 2.68164 4.23633C2.80859 4.23633 2.91602 4.27865 3.00391 4.36328L6.87109 8.15234C6.91667 8.19792 6.95085 8.24837 6.97363 8.30371C6.99967 8.35579 7.0127 8.41276 7.0127 8.47461Z" fill="black"/>
</svg>
