<svg width="24" height="24" viewBox="0 0 24 24" fill="none" xmlns="http://www.w3.org/2000/svg">
<path d="M4.46289 19.5537C2.66992 19.5537 1.74023 18.624 1.74023 16.856V8.14844C1.74023 6.38037 2.66992 5.45068 4.46289 5.45068H6.646C7.28516 5.45068 7.50098 5.33447 7.89941 4.91943L8.55518 4.20557C8.98682 3.75732 9.42676 3.5249 10.2734 3.5249H13.6768C14.5234 3.5249 14.9634 3.75732 15.395 4.20557L16.0508 4.91943C16.4492 5.34277 16.6567 5.45068 17.3042 5.45068H19.5288C21.3218 5.45068 22.2515 6.38037 22.2515 8.14844V16.856C22.2515 18.624 21.3218 19.5537 19.5288 19.5537H4.46289ZM18.9727 10.041C19.562 10.041 20.0435 9.55957 20.0435 8.97021C20.0435 8.38086 19.5537 7.89941 18.9727 7.89941C18.3833 7.89941 17.9019 8.38086 17.9019 8.97021C17.9019 9.55957 18.3833 10.041 18.9727 10.041ZM12 16.9639C14.4819 16.9639 16.4824 14.9634 16.4824 12.4648C16.4824 9.97461 14.4902 7.97412 12 7.97412C9.50977 7.97412 7.51758 9.97461 7.51758 12.4648C7.51758 14.9634 9.50977 16.9639 12 16.9639ZM12 15.478C10.3398 15.478 8.99512 14.1416 8.99512 12.4648C8.99512 10.7964 10.3398 9.45996 12 9.45996C13.6602 9.45996 15.0049 10.7964 15.0049 12.4648C15.0049 14.1416 13.6602 15.478 12 15.478Z" fill="currentcolor"/>
</svg>
