<svg width="14" height="24" viewBox="0 0 14 24" fill="none" xmlns="http://www.w3.org/2000/svg">
<path d="M12.7832 12.6543C12.7832 12.8301 12.748 12.9971 12.6777 13.1553C12.6133 13.3076 12.5078 13.4541 12.3613 13.5947L5.60254 20.2129C5.37402 20.4355 5.0957 20.5469 4.76758 20.5469C4.55664 20.5469 4.36035 20.4941 4.17871 20.3887C3.99707 20.2832 3.85059 20.1426 3.73926 19.9668C3.63379 19.791 3.58105 19.5918 3.58105 19.3691C3.58105 19.0469 3.7041 18.7598 3.9502 18.5078L9.9707 12.6543L3.9502 6.80078C3.7041 6.55469 3.58105 6.26758 3.58105 5.93945C3.58105 5.72266 3.63379 5.52637 3.73926 5.35059C3.85059 5.16895 3.99707 5.02539 4.17871 4.91992C4.36035 4.81445 4.55664 4.76172 4.76758 4.76172C5.0957 4.76172 5.37402 4.87305 5.60254 5.0957L12.3613 11.7139C12.502 11.8545 12.6074 12.001 12.6777 12.1533C12.748 12.3057 12.7832 12.4727 12.7832 12.6543Z" fill="black"/>
</svg>
