<svg width="24" height="24" viewBox="0 0 24 24" fill="none" xmlns="http://www.w3.org/2000/svg">
<path d="M12.4004 2C15.7603 2 17.4402 2.00042 18.7236 2.6543C19.8526 3.22954 20.7705 4.14739 21.3457 5.27637C21.9996 6.55977 22 8.23965 22 11.5996V12.4004C22 15.7603 21.9996 17.4402 21.3457 18.7236C20.7705 19.8526 19.8526 20.7705 18.7236 21.3457C17.4402 21.9996 15.7603 22 12.4004 22H11.5996C8.23965 22 6.55977 21.9996 5.27637 21.3457C4.14739 20.7705 3.22954 19.8526 2.6543 18.7236C2.00042 17.4402 2 15.7603 2 12.4004V11.5996C2 8.23965 2.00042 6.55977 2.6543 5.27637C3.22954 4.14739 4.14739 3.22954 5.27637 2.6543C6.55977 2.00042 8.23965 2 11.5996 2H12.4004ZM12 7C9.23858 7 7 9.23858 7 12C7 14.7614 9.23858 17 12 17C14.7614 17 17 14.7614 17 12C17 9.23858 14.7614 7 12 7ZM12 9C13.6569 9 15 10.3431 15 12C15 13.6569 13.6569 15 12 15C10.3431 15 9 13.6569 9 12C9 10.3431 10.3431 9 12 9Z" fill="white"/>
</svg>
