<svg width="8" height="16" viewBox="0 0 8 16" fill="none" xmlns="http://www.w3.org/2000/svg">
<path d="M7.12988 8.47461C7.12988 8.55924 7.11361 8.63737 7.08105 8.70898C7.0485 8.7806 6.99967 8.84896 6.93457 8.91406L3.13086 12.6348C3.02344 12.7454 2.88997 12.8008 2.73047 12.8008C2.6263 12.8008 2.53027 12.7747 2.44238 12.7227C2.35449 12.6738 2.28451 12.6055 2.23242 12.5176C2.18359 12.4329 2.15918 12.3385 2.15918 12.2344C2.15918 12.0781 2.21777 11.9398 2.33496 11.8193L5.7627 8.47461L2.33496 5.12988C2.21777 5.00944 2.15918 4.87272 2.15918 4.71973C2.15918 4.6123 2.18359 4.51628 2.23242 4.43164C2.28451 4.34701 2.35449 4.28027 2.44238 4.23145C2.53027 4.17936 2.6263 4.15332 2.73047 4.15332C2.88997 4.15332 3.02344 4.20703 3.13086 4.31445L6.93457 8.03516C6.99967 8.10026 7.0485 8.16862 7.08105 8.24023C7.11361 8.31185 7.12988 8.38997 7.12988 8.47461Z" fill="black"/>
</svg>
