<svg width="30" height="30" viewBox="0 0 30 30" fill="none" xmlns="http://www.w3.org/2000/svg">
<rect width="30" height="30" rx="8" fill="url(#paint0_linear_5436_182)"/>
<path fill-rule="evenodd" clip-rule="evenodd" d="M25.1645 11.2886L23.4268 7.2338C23.1691 6.6326 23.0403 6.332 22.8328 6.11134C22.6494 5.91631 22.4229 5.76695 22.1714 5.67521C21.8868 5.57141 21.5598 5.57141 20.9057 5.57141H9.09438C8.44028 5.57141 8.11324 5.57141 7.82868 5.67521C7.57718 5.76695 7.35067 5.91631 7.16728 6.11134C6.95978 6.332 6.83095 6.6326 6.57329 7.2338L4.83554 11.2886H25.1645ZM6.4286 16.3033C6.8962 16.4749 7.40144 16.5686 7.92859 16.5686C8.79693 16.5686 9.60656 16.3137 10.2857 15.8758C10.9649 16.3137 11.7745 16.5686 12.6429 16.5686C13.5112 16.5686 14.3208 16.3137 15 15.8758C15.6792 16.3137 16.4888 16.5686 17.3572 16.5686C18.2255 16.5686 19.0351 16.3137 19.7143 15.8758C20.3935 16.3137 21.2031 16.5686 22.0714 16.5686C22.5986 16.5686 23.1038 16.4749 23.5715 16.3033V21.6857C23.5715 22.6458 23.5715 23.1258 23.3846 23.4925C23.2203 23.8151 22.958 24.0774 22.6354 24.2417C22.2687 24.4286 21.7887 24.4286 20.8286 24.4286H9.17146C8.21137 24.4286 7.73132 24.4286 7.36462 24.2417C7.04205 24.0774 6.7798 23.8151 6.61545 23.4925C6.4286 23.1258 6.4286 22.6458 6.4286 21.6857V16.3033ZM8.14284 19.8C8.14284 19.3199 8.14284 19.0799 8.23627 18.8966C8.31844 18.7353 8.44957 18.6042 8.61085 18.522C8.79421 18.4286 9.03423 18.4286 9.51427 18.4286H12.7714C13.2515 18.4286 13.4915 18.4286 13.6748 18.522C13.8361 18.6042 13.9672 18.7353 14.0494 18.8966C14.1428 19.0799 14.1428 19.3199 14.1428 19.8V21.3428C14.1428 21.8229 14.1428 22.0629 14.0494 22.2463C13.9672 22.4075 13.8361 22.5387 13.6748 22.6208C13.4915 22.7143 13.2515 22.7143 12.7714 22.7143H9.51427C9.03423 22.7143 8.79421 22.7143 8.61085 22.6208C8.44957 22.5387 8.31844 22.4075 8.23627 22.2463C8.14284 22.0629 8.14284 21.8229 8.14284 21.3428V19.8ZM7.92854 15.4286C6.22534 15.4286 4.83155 14.1038 4.72128 12.4286H25.2787C25.1684 14.1038 23.7746 15.4286 22.0714 15.4286C21.1401 15.4286 20.3013 15.0325 19.7143 14.3996C19.1272 15.0325 18.2884 15.4286 17.3571 15.4286C16.4258 15.4286 15.587 15.0325 15 14.3996C14.4129 15.0325 13.5741 15.4286 12.6428 15.4286C11.7115 15.4286 10.8727 15.0325 10.2857 14.3996C9.69865 15.0325 8.85985 15.4286 7.92854 15.4286Z" fill="white"/>
<defs>
<linearGradient id="paint0_linear_5436_182" x1="30" y1="0" x2="0" y2="30" gradientUnits="userSpaceOnUse">
<stop stop-color="#C16AF0"/>
<stop offset="1" stop-color="#F06486"/>
</linearGradient>
</defs>
</svg>
