<svg width="30" height="30" viewBox="0 0 30 30" fill="none" xmlns="http://www.w3.org/2000/svg">
<rect width="30" height="30" rx="8" fill="#FF2D55"/>
<path d="M15 5C20.5228 5 25 9.47715 25 15C25 20.5228 20.5228 25 15 25C9.47715 25 5 20.5228 5 15C5 9.47715 9.47715 5 15 5ZM15 18.0771C12.6869 18.0771 10.892 18.6217 9.61523 19.7109C9.48708 19.8203 9.32535 19.9882 9.1748 20.1533C8.91046 20.4432 8.92906 20.8873 9.21191 21.1592C9.35495 21.2967 9.50302 21.4353 9.61816 21.5303C11.0807 22.737 12.9559 23.4619 15 23.4619C17.0458 23.4619 18.922 22.7351 20.3848 21.5264C20.4988 21.4321 20.6464 21.2955 20.7881 21.1592C21.0704 20.8875 21.0889 20.4441 20.8252 20.1543C20.6754 19.9898 20.5141 19.8228 20.3867 19.7139C19.1106 18.6229 17.3152 18.0772 15 18.0771ZM15 9.61523C13.3007 9.61523 11.9229 10.993 11.9229 12.6924C11.9229 14.3917 13.3007 15.7695 15 15.7695C16.6993 15.7695 18.0771 14.3917 18.0771 12.6924C18.0771 10.993 16.6993 9.61524 15 9.61523Z" fill="white"/>
</svg>
