<svg width="30" height="30" viewBox="0 0 30 30" fill="none" xmlns="http://www.w3.org/2000/svg">
<rect width="30" height="30" rx="8" fill="#007AFF"/>
<path d="M19.2002 7C20.8802 7 21.7206 7.00018 22.3623 7.32715C22.9265 7.61472 23.3853 8.07347 23.6729 8.6377C23.7908 8.86919 23.8639 9.1272 23.9121 9.44043C23.9113 9.44254 23.912 9.44523 23.9111 9.44727C23.7924 9.73392 23.564 9.9623 23.2773 10.0811C23.2116 10.1082 23.104 10.1372 22.8682 10.1533C22.6241 10.17 22.3073 10.1699 21.8301 10.1699H18.5303C17.984 10.1699 17.5236 10.1696 17.1484 10.2002C16.7638 10.2317 16.3952 10.3001 16.0449 10.4785C15.5127 10.7498 15.0799 11.1826 14.8086 11.7148C14.6301 12.0651 14.5617 12.4337 14.5303 12.8184C14.4996 13.1935 14.5 13.6538 14.5 14.2002V15.7998C14.5 16.3462 14.4996 16.8065 14.5303 17.1816C14.5617 17.5663 14.6301 17.9349 14.8086 18.2852C15.0799 18.8174 15.5127 19.2502 16.0449 19.5215C16.3952 19.6999 16.7638 19.7683 17.1484 19.7998C17.5236 19.8304 17.984 19.8301 18.5303 19.8301H21.8301C22.3073 19.8301 22.6241 19.83 22.8682 19.8467C23.1041 19.8628 23.2116 19.8918 23.2773 19.9189C23.564 20.0377 23.7924 20.2661 23.9111 20.5527C23.9119 20.5545 23.9114 20.5568 23.9121 20.5586C23.8639 20.8723 23.7909 21.1306 23.6729 21.3623C23.3853 21.9265 22.9265 22.3853 22.3623 22.6729C21.7206 22.9998 20.8802 23 19.2002 23H10.7998C9.11978 23 8.27941 22.9998 7.6377 22.6729C7.07347 22.3853 6.61472 21.9265 6.32715 21.3623C6.00018 20.7206 6 19.8802 6 18.2002V11.7998C6 10.1198 6.00018 9.27941 6.32715 8.6377C6.61472 8.07347 7.07347 7.61472 7.6377 7.32715C8.27941 7.00018 9.11978 7 10.7998 7H19.2002ZM24 11.7998V18.2002C24 18.2771 23.9981 18.3523 23.998 18.4258C23.9696 18.4129 23.9421 18.3977 23.9131 18.3857C23.6114 18.2608 23.3016 18.2133 22.9805 18.1914C22.6668 18.17 22.2844 18.1699 21.8301 18.1699H18.5303C17.9567 18.1699 17.576 18.1693 17.2842 18.1455C17.0021 18.1225 16.8762 18.0814 16.7988 18.042C16.5789 17.9299 16.4002 17.7512 16.2881 17.5312C16.2486 17.4538 16.2076 17.3281 16.1846 17.0459C16.1607 16.754 16.1602 16.3735 16.1602 15.7998V14.2002C16.1602 13.6265 16.1607 13.246 16.1846 12.9541C16.2076 12.6719 16.2486 12.5462 16.2881 12.4688C16.4002 12.2488 16.5789 12.0701 16.7988 11.958C16.8762 11.9186 17.0021 11.8775 17.2842 11.8545C17.576 11.8307 17.9567 11.8301 18.5303 11.8301H21.8301C22.2844 11.8301 22.6668 11.83 22.9805 11.8086C23.3016 11.7867 23.6114 11.7392 23.9131 11.6143C23.9422 11.6022 23.9695 11.5862 23.998 11.5732C23.9981 11.647 24 11.7225 24 11.7998ZM19 13.5C18.1716 13.5 17.5 14.1716 17.5 15C17.5 15.8284 18.1716 16.5 19 16.5C19.8284 16.5 20.5 15.8284 20.5 15C20.5 14.1716 19.8284 13.5 19 13.5Z" fill="white"/>
</svg>
