<svg width="9" height="18" viewBox="0 0 9 18" fill="none" xmlns="http://www.w3.org/2000/svg">
<path d="M8.11523 9.76953C8.11523 9.84375 8.09961 9.91406 8.06836 9.98047C8.04102 10.043 8 10.1016 7.94531 10.1562L3.30469 14.6973C3.19922 14.8027 3.07031 14.8555 2.91797 14.8555C2.82031 14.8555 2.73047 14.832 2.64844 14.7852C2.56641 14.7383 2.50195 14.6738 2.45508 14.5918C2.4082 14.5137 2.38477 14.4238 2.38477 14.3223C2.38477 14.1777 2.43555 14.0508 2.53711 13.9414L6.80273 9.76953L2.53711 5.59766C2.43555 5.48828 2.38477 5.36133 2.38477 5.2168C2.38477 5.11523 2.4082 5.02539 2.45508 4.94727C2.50195 4.86523 2.56641 4.80078 2.64844 4.75391C2.73047 4.70703 2.82031 4.68359 2.91797 4.68359C3.07031 4.68359 3.19922 4.73438 3.30469 4.83594L7.94531 9.38281C8 9.4375 8.04102 9.49805 8.06836 9.56445C8.09961 9.62695 8.11523 9.69531 8.11523 9.76953Z" fill="black"/>
</svg>
