<svg width="8" height="18" viewBox="0 0 8 18" fill="none" xmlns="http://www.w3.org/2000/svg">
<path d="M7.94287 10.1221C7.94287 10.2152 7.92497 10.3011 7.88916 10.3799C7.85335 10.4587 7.79964 10.5339 7.72803 10.6055L3.54395 14.6982C3.42578 14.82 3.27897 14.8809 3.10352 14.8809C2.98893 14.8809 2.8833 14.8522 2.78662 14.7949C2.68994 14.7412 2.61296 14.666 2.55566 14.5693C2.50195 14.4762 2.4751 14.3724 2.4751 14.2578C2.4751 14.0859 2.53955 13.9338 2.66846 13.8013L6.43896 10.1221L2.66846 6.44287C2.53955 6.31038 2.4751 6.15999 2.4751 5.9917C2.4751 5.87354 2.50195 5.7679 2.55566 5.6748C2.61296 5.58171 2.68994 5.5083 2.78662 5.45459C2.8833 5.3973 2.98893 5.36865 3.10352 5.36865C3.27897 5.36865 3.42578 5.42773 3.54395 5.5459L7.72803 9.63867C7.79964 9.71029 7.85335 9.78548 7.88916 9.86426C7.92497 9.94303 7.94287 10.029 7.94287 10.1221Z" fill="black"/>
</svg>
