<svg width="8" height="18" viewBox="0 0 8 18" fill="none" xmlns="http://www.w3.org/2000/svg">
<path d="M7.31396 10.1221C7.31396 10.1901 7.29964 10.2546 7.271 10.3154C7.24593 10.3727 7.20833 10.4264 7.1582 10.4766L2.9043 14.6392C2.80762 14.7358 2.68945 14.7842 2.5498 14.7842C2.46029 14.7842 2.37793 14.7627 2.30273 14.7197C2.22754 14.6768 2.16846 14.6177 2.12549 14.5425C2.08252 14.4709 2.06104 14.3885 2.06104 14.2954C2.06104 14.1629 2.10758 14.0465 2.20068 13.9463L6.11084 10.1221L2.20068 6.29785C2.10758 6.19759 2.06104 6.08122 2.06104 5.94873C2.06104 5.85563 2.08252 5.77327 2.12549 5.70166C2.16846 5.62646 2.22754 5.56738 2.30273 5.52441C2.37793 5.48145 2.46029 5.45996 2.5498 5.45996C2.68945 5.45996 2.80762 5.50651 2.9043 5.59961L7.1582 9.76758C7.20833 9.81771 7.24593 9.87321 7.271 9.93408C7.29964 9.99137 7.31396 10.054 7.31396 10.1221Z" fill="black"/>
</svg>
