<svg width="11" height="22" viewBox="0 0 11 22" fill="none" xmlns="http://www.w3.org/2000/svg">
<path d="M9.88184 12.0645C9.88184 12.1829 9.85905 12.2923 9.81348 12.3926C9.7679 12.4928 9.69954 12.5885 9.6084 12.6797L4.2832 17.8887C4.13281 18.0436 3.94596 18.1211 3.72266 18.1211C3.57682 18.1211 3.44238 18.0846 3.31934 18.0117C3.19629 17.9434 3.09831 17.8477 3.02539 17.7246C2.95703 17.6061 2.92285 17.474 2.92285 17.3281C2.92285 17.1094 3.00488 16.9157 3.16895 16.7471L7.96777 12.0645L3.16895 7.38184C3.00488 7.21322 2.92285 7.02181 2.92285 6.80762C2.92285 6.65723 2.95703 6.52279 3.02539 6.4043C3.09831 6.28581 3.19629 6.19238 3.31934 6.12402C3.44238 6.05111 3.57682 6.01465 3.72266 6.01465C3.94596 6.01465 4.13281 6.08984 4.2832 6.24023L9.6084 11.4492C9.69954 11.5404 9.7679 11.6361 9.81348 11.7363C9.85905 11.8366 9.88184 11.946 9.88184 12.0645Z" fill="black"/>
</svg>
