<svg width="40" height="40" viewBox="0 0 40 40" fill="none" xmlns="http://www.w3.org/2000/svg">
<path d="M30.7001 28.9003C31.1745 29.3746 31.1745 30.1698 30.7001 30.6581C30.2258 31.1464 29.4027 31.1324 28.9284 30.6581L19.9998 21.7295L11.0712 30.6581C10.5969 31.1324 9.78776 31.1324 9.29947 30.6581C8.81119 30.1838 8.82514 29.3746 9.29947 28.9003L18.228 19.9577L9.29947 11.0292C8.82514 10.5548 8.82514 9.75964 9.29947 9.27136C9.77381 8.76913 10.5969 8.78308 11.0712 9.27136L19.9998 18.1999L28.9284 9.27136C29.4167 8.76913 30.2119 8.78308 30.7001 9.27136C31.1884 9.74569 31.1745 10.5548 30.7001 11.0292L21.7716 19.9577L30.7001 28.9003Z" fill="#007AFF"/>
</svg>
