<svg width="240" height="240" viewBox="0 0 240 240" fill="none" xmlns="http://www.w3.org/2000/svg">
<rect width="240" height="240" fill="url(#paint0_linear_87_13159)"/>
<path d="M57.1549 138.306C60.6847 141.003 66.0274 144.088 73.1829 148.219L90.1316 158.004C104.254 166.157 111.315 170.234 120.089 170.234C128.863 170.234 135.924 166.157 150.046 158.004L166.995 148.219C174.15 144.088 179.493 141.003 183.023 138.306C186.459 140.932 188.178 143.19 188.178 145.689C188.178 150.755 181.117 154.831 166.995 162.985L150.046 172.77C135.924 180.923 128.863 185 120.089 185C111.315 185 104.254 180.923 90.1316 172.77L73.1829 162.985C59.061 154.831 52 150.755 52 145.689C52 143.19 53.7183 140.932 57.1549 138.306Z" fill="white"/>
<path d="M57.1549 112.617C60.6847 115.314 66.0274 118.399 73.1829 122.53L90.1316 132.315C104.254 140.468 111.315 144.545 120.089 144.545C128.863 144.545 135.924 140.468 150.046 132.315L166.995 122.53C174.15 118.399 179.493 115.314 183.023 112.617C186.459 115.243 188.178 117.501 188.178 120C188.178 125.066 181.117 129.142 166.995 137.296L150.046 147.081C135.924 155.234 128.863 159.311 120.089 159.311C111.315 159.311 104.254 155.234 90.1316 147.081L73.1829 137.296C59.061 129.142 52 125.066 52 120C52 117.501 53.7183 115.243 57.1549 112.617Z" fill="white"/>
<path d="M73.1829 111.607C59.061 103.454 52 99.3769 52 94.3111C52 89.2453 59.061 85.1686 73.1829 77.0153L90.1316 67.23C104.254 59.0767 111.315 55 120.089 55C128.863 55 135.924 59.0767 150.046 67.23L166.995 77.0153C181.117 85.1686 188.178 89.2453 188.178 94.3111C188.178 99.3769 181.117 103.454 166.995 111.607L150.046 121.392C135.924 129.545 128.863 133.622 120.089 133.622C111.315 133.622 104.254 129.545 90.1316 121.392L73.1829 111.607Z" fill="white"/>
<defs>
<linearGradient id="paint0_linear_87_13159" x1="120" y1="0" x2="120" y2="240" gradientUnits="userSpaceOnUse">
<stop stop-color="#7688FF"/>
<stop offset="1" stop-color="#5A6EF5"/>
</linearGradient>
</defs>
</svg>
