<svg width="30" height="30" viewBox="0 0 30 30" fill="none" xmlns="http://www.w3.org/2000/svg">
<rect width="30" height="30" rx="8" fill="url(#paint0_linear_5436_181)"/>
<path d="M7.51109 22.1025V16.6336H14.1471V24.4286H9.9404C9.17826 24.4286 8.58284 24.2303 8.15414 23.8337C7.72544 23.4372 7.51109 22.8601 7.51109 22.1025ZM15.8351 24.4286V16.6336H22.48V22.1025C22.48 22.8601 22.2656 23.4372 21.8369 23.8337C21.4142 24.2303 20.8217 24.4286 20.0596 24.4286H15.8351ZM6.27856 14.121V12.1412C6.27856 11.5967 6.4304 11.1972 6.73406 10.9427C7.04368 10.6882 7.46345 10.5609 7.99338 10.5609H9.77071C9.50872 10.3123 9.3033 10.0223 9.15445 9.69086C9.01155 9.35941 8.9401 8.99837 8.9401 8.60773C8.9401 8.01586 9.083 7.49205 9.3688 7.0363C9.6546 6.58056 10.0357 6.22247 10.512 5.96205C10.9943 5.70162 11.5332 5.57141 12.1286 5.57141C12.7895 5.57141 13.376 5.74897 13.888 6.1041C14.4061 6.45922 14.7752 6.95936 14.9955 7.6045C15.2158 6.95936 15.585 6.45922 16.103 6.1041C16.621 5.74897 17.2075 5.57141 17.8625 5.57141C18.4579 5.57141 18.9938 5.70162 19.4701 5.96205C19.9524 6.22247 20.3365 6.58056 20.6223 7.0363C20.9081 7.49205 21.051 8.01586 21.051 8.60773C21.051 8.99837 20.9795 9.35941 20.8366 9.69086C20.6937 10.0223 20.4913 10.3123 20.2293 10.5609H22.0066C22.5544 10.5609 22.9771 10.6882 23.2749 10.9427C23.5726 11.1972 23.7214 11.5967 23.7214 12.1412V14.121C23.7214 14.6182 23.5845 14.9822 23.3106 15.2131C23.0367 15.438 22.6526 15.5504 22.1584 15.5504H15.8351V10.5609H17.1837C17.8684 10.5609 18.3984 10.3834 18.7735 10.0282C19.1545 9.67311 19.3451 9.25287 19.3451 8.76754C19.3451 8.29404 19.1932 7.92411 18.8896 7.65777C18.5859 7.38551 18.1929 7.24938 17.7106 7.24938C17.1986 7.24938 16.758 7.43878 16.3888 7.81758C16.0197 8.19046 15.8351 8.69059 15.8351 9.31798V10.5609H14.1471V9.31798C14.1471 8.69059 13.9654 8.19046 13.6022 7.81758C13.239 7.43878 12.7984 7.24938 12.2804 7.24938C11.7981 7.24938 11.4051 7.38551 11.1015 7.65777C10.7978 7.92411 10.646 8.29404 10.646 8.76754C10.646 9.25287 10.8335 9.67311 11.2087 10.0282C11.5897 10.3834 12.1226 10.5609 12.8074 10.5609H14.1471V15.5504H7.84154C7.34735 15.5504 6.9633 15.438 6.6894 15.2131C6.41551 14.9822 6.27856 14.6182 6.27856 14.121Z" fill="white"/>
<defs>
<linearGradient id="paint0_linear_5436_181" x1="27" y1="2.5" x2="3" y2="27.5" gradientUnits="userSpaceOnUse">
<stop stop-color="#37C27D"/>
<stop offset="1" stop-color="#3CA3F1"/>
</linearGradient>
</defs>
</svg>
