<svg width="30" height="30" viewBox="0 0 30 30" fill="none" xmlns="http://www.w3.org/2000/svg">
<rect width="30" height="30" rx="8" fill="#FF9500"/>
<path d="M18.2002 9.17004C19.0265 9.17004 19.6964 9.16972 20.2383 9.21399C20.7897 9.25907 21.282 9.35502 21.7393 9.58801C22.4594 9.95513 23.045 10.5407 23.4121 11.2609C23.6451 11.7181 23.7411 12.2104 23.7861 12.7618C23.8304 13.3037 23.8301 13.9737 23.8301 14.7999V15.2003C23.8301 16.0266 23.8304 16.6966 23.7861 17.2384C23.7411 17.7898 23.6451 18.2821 23.4121 18.7394C23.045 19.4596 22.4595 20.0451 21.7393 20.4122C21.282 20.6452 20.7897 20.7412 20.2383 20.7863C19.6964 20.8305 19.0265 20.8302 18.2002 20.8302H9.7998C8.97355 20.8302 8.30356 20.8305 7.76172 20.7863C7.2103 20.7412 6.718 20.6452 6.26074 20.4122C5.54055 20.0451 4.95501 19.4596 4.58789 18.7394C4.3549 18.2821 4.25895 17.7898 4.21387 17.2384C4.1696 16.6966 4.16992 16.0266 4.16992 15.2003V14.7999C4.16992 13.9737 4.1696 13.3037 4.21387 12.7618C4.25894 12.2104 4.3549 11.7181 4.58789 11.2609C4.95501 10.5406 5.54052 9.95513 6.26074 9.58801C6.71802 9.35502 7.21027 9.25907 7.76172 9.21399C8.30356 9.16972 8.97355 9.17004 9.7998 9.17004H18.2002ZM9.7998 10.8302C8.94634 10.8302 8.356 10.8308 7.89746 10.8683C7.44856 10.905 7.199 10.9726 7.01465 11.0665C6.60642 11.2746 6.27444 11.6065 6.06641 12.0148C5.97248 12.1991 5.90484 12.4487 5.86816 12.8976C5.83072 13.3561 5.83008 13.9465 5.83008 14.7999V15.2003C5.83008 16.0538 5.83072 16.6441 5.86816 17.1027C5.90484 17.5515 5.97248 17.8011 6.06641 17.9855C6.27444 18.3937 6.60645 18.7257 7.01465 18.9337C7.199 19.0276 7.44861 19.0953 7.89746 19.132C8.35599 19.1694 8.94635 19.17 9.7998 19.17H18.2002C19.0537 19.17 19.644 19.1694 20.1025 19.132C20.5514 19.0953 20.801 19.0276 20.9854 18.9337C21.3936 18.7257 21.7256 18.3937 21.9336 17.9855C22.0275 17.8011 22.0952 17.5515 22.1318 17.1027C22.1693 16.6441 22.1699 16.0538 22.1699 15.2003V14.7999C22.1699 13.9465 22.1693 13.3561 22.1318 12.8976C22.0952 12.4487 22.0275 12.1991 21.9336 12.0148C21.7256 11.6066 21.3935 11.2746 20.9854 11.0665C20.801 10.9726 20.5514 10.905 20.1025 10.8683C19.644 10.8308 19.0537 10.8302 18.2002 10.8302H9.7998ZM9.40039 12.0001C9.96013 12.0001 10.2402 12.0005 10.4541 12.1095C10.6421 12.2054 10.7948 12.358 10.8906 12.546C10.9996 12.7599 11 13.0399 11 13.5997V16.4005C11 16.9603 10.9996 17.2404 10.8906 17.4542C10.7948 17.6422 10.642 17.7949 10.4541 17.8907C10.2402 17.9997 9.96013 18.0001 9.40039 18.0001H8.59961C8.03977 18.0001 7.75977 17.9997 7.5459 17.8907C7.35792 17.7949 7.20523 17.6422 7.10938 17.4542C7.00041 17.2404 7 16.9603 7 16.4005V13.5997C7 13.0399 7.0004 12.7599 7.10938 12.546C7.20522 12.358 7.3579 12.2053 7.5459 12.1095C7.75977 12.0005 8.03977 12.0001 8.59961 12.0001H9.40039ZM24.5 12.5001C25.5059 12.9236 26.1602 13.9087 26.1602 15.0001C26.1601 16.0915 25.5059 17.0767 24.5 17.5001V12.5001Z" fill="white"/>
</svg>
