<svg width="30" height="30" viewBox="0 0 30 30" fill="none" xmlns="http://www.w3.org/2000/svg">
<rect width="30" height="30" rx="8" fill="url(#paint0_linear_5436_183)"/>
<path fill-rule="evenodd" clip-rule="evenodd" d="M11.4468 10.5555L13.9724 5.62644C14.2637 5.05781 14.9681 4.82936 15.5457 5.11619C15.7725 5.22879 15.956 5.4109 16.0684 5.63507L18.4536 10.3885C18.6484 10.7768 19.0293 11.042 19.4662 11.0934L24.4608 11.6805C25.1389 11.7602 25.6229 12.366 25.5419 13.0335C25.5086 13.3084 25.381 13.5639 25.1803 13.7579L21.2325 17.5725C21.0732 17.7264 20.9959 17.9449 21.0237 18.163L21.6797 23.313C21.7736 24.0502 21.2427 24.7228 20.4938 24.8152C20.21 24.8503 19.9221 24.7968 19.6709 24.6622L15.5 22.4294C15.1983 22.2679 14.835 22.2632 14.5291 22.417L10.2077 24.5892C9.5995 24.8949 8.85473 24.6574 8.54421 24.0587C8.42804 23.8347 8.38522 23.5808 8.42158 23.3318L8.76692 20.969C8.93591 19.8134 9.6655 18.811 10.7227 18.2819L15.5223 15.88C15.6504 15.8159 15.7015 15.6617 15.6364 15.5355C15.5859 15.4378 15.4778 15.3824 15.3676 15.3979L9.49769 16.2218C8.60039 16.3477 7.69036 16.0996 6.98686 15.537L5.03172 13.9734C4.47379 13.5273 4.38891 12.7202 4.84213 12.171C5.05289 11.9156 5.35541 11.7498 5.68696 11.708L10.6993 11.0758C11.0208 11.0353 11.3008 10.8403 11.4468 10.5555Z" fill="white"/>
<defs>
<linearGradient id="paint0_linear_5436_183" x1="27" y1="2" x2="3" y2="27.5" gradientUnits="userSpaceOnUse">
<stop stop-color="#B46EEB"/>
<stop offset="1" stop-color="#6A93FF"/>
</linearGradient>
</defs>
</svg>
