<svg width="28" height="28" viewBox="0 0 28 28" fill="none" xmlns="http://www.w3.org/2000/svg">
<path d="M3.87291 20.6707L5.5233 16.95C5.87486 16.1296 6.62682 15.9636 7.0858 16.7644L8.03307 18.405L13.2186 15.7976V9.44996H11.5878C10.6503 9.44996 10.4256 8.70777 10.9628 7.98512L13.3553 4.71363C13.7655 4.15699 14.2147 4.16676 14.6249 4.71363L17.0272 7.98512C17.5643 8.71754 17.3592 9.44996 16.4022 9.44996H14.7909V15.7976L19.9764 18.405L20.9237 16.7644C21.3827 15.9636 22.1249 16.1296 22.4862 16.95L24.1268 20.6707C24.4003 21.2957 24.1561 21.6961 23.4921 21.7742L19.4491 22.2136C18.5604 22.3211 18.0233 21.7644 18.5018 20.9441L19.1952 19.7527L13.9999 17.1453L8.81432 19.7527L9.49791 20.9441C9.97642 21.7644 9.44908 22.3211 8.55064 22.2136L4.50767 21.7742C3.84361 21.6961 3.59947 21.2957 3.87291 20.6707Z" fill="black"/>
</svg>
