<svg width="28" height="28" viewBox="0 0 28 28" fill="none" xmlns="http://www.w3.org/2000/svg">
<path d="M4.88867 21.999C3.05176 21.999 2.12891 21.0938 2.12891 19.2832V8.54297C2.12891 6.73242 3.05176 5.81836 4.88867 5.81836H20.0938C21.9395 5.81836 22.8535 6.73242 22.8535 8.54297V13.5791C22.625 13.5527 22.3877 13.5352 22.1504 13.5352C21.9131 13.5352 21.6758 13.5527 21.4385 13.5791V8.62207C21.4385 7.70801 20.9463 7.2334 20.0762 7.2334H4.90625C4.02734 7.2334 3.54395 7.70801 3.54395 8.62207V18.334L6.16309 15.9609C6.52344 15.627 6.90137 15.4688 7.29688 15.4688C7.70996 15.4688 8.11426 15.6357 8.4834 15.9697L10.1094 17.4375L14.082 13.8867C14.4863 13.5264 14.917 13.3594 15.4004 13.3594C15.875 13.3594 16.3408 13.5439 16.7275 13.9043L18.1426 15.2314C17.1143 16.2422 16.4814 17.6484 16.4814 19.2041C16.4814 20.2148 16.7627 21.1729 17.2461 21.999H4.88867ZM8.67676 13.9922C7.53418 13.9922 6.60254 13.0605 6.60254 11.918C6.60254 10.7842 7.53418 9.84375 8.67676 9.84375C9.81055 9.84375 10.7422 10.7842 10.7422 11.918C10.7422 13.0605 9.81055 13.9922 8.67676 13.9922ZM22.1592 23.6689C19.707 23.6689 17.6943 21.6562 17.6943 19.2041C17.6943 16.752 19.707 14.7393 22.1592 14.7393C24.6025 14.7393 26.624 16.752 26.624 19.2041C26.624 21.6387 24.5762 23.6689 22.1592 23.6689ZM22.1592 21.999C22.4844 21.999 22.6953 21.7793 22.6953 21.4541V19.7402H24.4092C24.7344 19.7402 24.9541 19.5293 24.9541 19.2041C24.9541 18.8701 24.7344 18.6592 24.4092 18.6592H22.6953V16.9453C22.6953 16.6289 22.4844 16.4092 22.1592 16.4092C21.8252 16.4092 21.6143 16.6289 21.6143 16.9453V18.6592H19.9004C19.5752 18.6592 19.3643 18.8701 19.3643 19.2041C19.3643 19.5293 19.5752 19.7402 19.9004 19.7402H21.6143V21.4541C21.6143 21.7793 21.8252 21.999 22.1592 21.999Z" fill="#007AFF"/>
</svg>
