<svg width="28" height="28" viewBox="0 0 28 28" fill="none" xmlns="http://www.w3.org/2000/svg">
<path d="M18.0859 10.5703C17.9102 10.5703 17.8125 10.4727 17.793 10.3164C17.4512 8.12891 17.0703 7.65039 14.8047 7.31836C14.6387 7.28906 14.541 7.18164 14.541 7.04492C14.541 6.88867 14.6387 6.77148 14.8047 6.75195C17.0703 6.41992 17.3633 5.93164 17.793 3.75391C17.8223 3.59766 17.9297 3.5 18.0859 3.5C18.2227 3.5 18.3301 3.59766 18.3594 3.76367C18.6914 5.89258 19.082 6.41992 21.3574 6.75195C21.5137 6.77148 21.6113 6.88867 21.6113 7.04492C21.6113 7.18164 21.5137 7.29883 21.3574 7.31836C19.082 7.65039 18.7891 8.12891 18.3594 10.3262C18.3301 10.4727 18.2227 10.5703 18.0859 10.5703ZM21.709 22.4258L9.22852 9.93555C8.79883 9.49609 8.79883 8.83203 9.21875 8.39258C9.62891 7.95312 10.3418 7.95312 10.7715 8.39258L23.252 20.873C23.6816 21.3223 23.6816 21.9863 23.2617 22.4258C22.8516 22.8555 22.1387 22.8652 21.709 22.4258ZM13.252 12.9043L13.7402 12.4355L10.3711 9.05664C10.2344 8.91992 10.0195 8.92969 9.89258 9.05664C9.75586 9.19336 9.75586 9.39844 9.89258 9.53516L13.252 12.9043ZM7.19727 18.5781C7.06055 18.5781 6.96289 18.4805 6.94336 18.3438C6.65039 16.5078 6.65039 16.3711 4.6582 16.0586C4.52148 16.0391 4.42383 15.9512 4.42383 15.8047C4.42383 15.6582 4.52148 15.5703 4.6582 15.5508C6.65039 15.2383 6.65039 15.1016 6.94336 13.2656C6.96289 13.1289 7.06055 13.0312 7.19727 13.0312C7.34375 13.0312 7.44141 13.1289 7.46094 13.2656C7.75391 15.1016 7.75391 15.2383 9.74609 15.5508C9.88281 15.5703 9.98047 15.6582 9.98047 15.8047C9.98047 15.9512 9.88281 16.0391 9.74609 16.0586C7.75391 16.3711 7.75391 16.5078 7.46094 18.3438C7.44141 18.4805 7.34375 18.5781 7.19727 18.5781ZM10.459 21.332C10.3418 21.332 10.2637 21.2441 10.2344 21.127C10 20.043 10.0977 19.9941 8.86719 19.7695C8.75 19.7402 8.67188 19.6523 8.67188 19.5449C8.67188 19.4277 8.75 19.3398 8.87695 19.3203C10.0977 19.125 10 19.0664 10.2344 17.9727C10.2637 17.8457 10.3418 17.7578 10.459 17.7578C10.5664 17.7578 10.6543 17.8457 10.6836 17.9531C10.8789 19.0664 10.8203 19.0957 12.0508 19.3203C12.168 19.3398 12.2461 19.4375 12.2461 19.5449C12.2461 19.6523 12.168 19.7402 12.0508 19.7695C10.8105 19.9941 10.8594 20.043 10.6836 21.127C10.6543 21.2441 10.5762 21.332 10.459 21.332Z" fill="currentcolor"/>
</svg>
