<svg width="18" height="34" viewBox="0 0 18 34" fill="none" xmlns="http://www.w3.org/2000/svg">
<path d="M17.2109 18.5391C17.2109 18.7734 17.1641 18.9961 17.0703 19.207C16.9844 19.4102 16.8438 19.6055 16.6484 19.793L7.63672 28.6172C7.33203 28.9141 6.96094 29.0625 6.52344 29.0625C6.24219 29.0625 5.98047 28.9922 5.73828 28.8516C5.49609 28.7109 5.30078 28.5234 5.15234 28.2891C5.01172 28.0547 4.94141 27.7891 4.94141 27.4922C4.94141 27.0625 5.10547 26.6797 5.43359 26.3438L13.4609 18.5391L5.43359 10.7344C5.10547 10.4062 4.94141 10.0234 4.94141 9.58594C4.94141 9.29688 5.01172 9.03516 5.15234 8.80078C5.30078 8.55859 5.49609 8.36719 5.73828 8.22656C5.98047 8.08594 6.24219 8.01562 6.52344 8.01562C6.96094 8.01562 7.33203 8.16406 7.63672 8.46094L16.6484 17.2852C16.8359 17.4727 16.9766 17.668 17.0703 17.8711C17.1641 18.0742 17.2109 18.2969 17.2109 18.5391Z" fill="black"/>
</svg>
