<svg width="11" height="22" viewBox="0 0 11 22" fill="none" xmlns="http://www.w3.org/2000/svg">
<path d="M10.6948 11.7119C10.6948 11.8389 10.6704 11.9561 10.6216 12.0635C10.5728 12.1709 10.4995 12.2734 10.4019 12.3711L4.69629 17.9521C4.53516 18.1182 4.33496 18.2012 4.0957 18.2012C3.93945 18.2012 3.79541 18.1621 3.66357 18.084C3.53174 18.0107 3.42676 17.9082 3.34863 17.7764C3.27539 17.6494 3.23877 17.5078 3.23877 17.3516C3.23877 17.1172 3.32666 16.9097 3.50244 16.729L8.64404 11.7119L3.50244 6.69482C3.32666 6.51416 3.23877 6.30908 3.23877 6.07959C3.23877 5.91846 3.27539 5.77441 3.34863 5.64746C3.42676 5.52051 3.53174 5.42041 3.66357 5.34717C3.79541 5.26904 3.93945 5.22998 4.0957 5.22998C4.33496 5.22998 4.53516 5.31055 4.69629 5.47168L10.4019 11.0527C10.4995 11.1504 10.5728 11.2529 10.6216 11.3604C10.6704 11.4678 10.6948 11.585 10.6948 11.7119Z" fill="black"/>
</svg>
