<svg width="11" height="22" viewBox="0 0 11 22" fill="none" xmlns="http://www.w3.org/2000/svg">
<path d="M9.99805 12.0645C9.99805 12.2012 9.9707 12.3311 9.91602 12.4541C9.86589 12.5726 9.78385 12.6865 9.66992 12.7959L4.41309 17.9434C4.23535 18.1165 4.01888 18.2031 3.76367 18.2031C3.59961 18.2031 3.44694 18.1621 3.30566 18.0801C3.16439 17.998 3.05046 17.8887 2.96387 17.752C2.88184 17.6152 2.84082 17.4603 2.84082 17.2871C2.84082 17.0365 2.93652 16.8132 3.12793 16.6172L7.81055 12.0645L3.12793 7.51172C2.93652 7.32031 2.84082 7.09701 2.84082 6.8418C2.84082 6.67318 2.88184 6.52051 2.96387 6.38379C3.05046 6.24251 3.16439 6.13086 3.30566 6.04883C3.44694 5.9668 3.59961 5.92578 3.76367 5.92578C4.01888 5.92578 4.23535 6.01237 4.41309 6.18555L9.66992 11.333C9.7793 11.4424 9.86133 11.5563 9.91602 11.6748C9.9707 11.7933 9.99805 11.9232 9.99805 12.0645Z" fill="black"/>
</svg>
