<svg width="10" height="20" viewBox="0 0 10 20" fill="none" xmlns="http://www.w3.org/2000/svg">
<path d="M8.9165 10.417C8.9165 10.4974 8.89958 10.5736 8.86572 10.6455C8.8361 10.7132 8.79167 10.7767 8.73242 10.8359L3.70508 15.7554C3.59082 15.8696 3.45117 15.9268 3.28613 15.9268C3.18034 15.9268 3.08301 15.9014 2.99414 15.8506C2.90527 15.7998 2.83545 15.73 2.78467 15.6411C2.73389 15.5565 2.7085 15.4591 2.7085 15.3491C2.7085 15.1925 2.76351 15.055 2.87354 14.9365L7.49463 10.417L2.87354 5.89746C2.76351 5.77897 2.7085 5.64144 2.7085 5.48486C2.7085 5.37484 2.73389 5.27751 2.78467 5.19287C2.83545 5.104 2.90527 5.03418 2.99414 4.9834C3.08301 4.93262 3.18034 4.90723 3.28613 4.90723C3.45117 4.90723 3.59082 4.96224 3.70508 5.07227L8.73242 9.99805C8.79167 10.0573 8.8361 10.1229 8.86572 10.1948C8.89958 10.2625 8.9165 10.3366 8.9165 10.417Z" fill="black"/>
</svg>
