<svg width="10" height="20" viewBox="0 0 10 20" fill="none" xmlns="http://www.w3.org/2000/svg">
<path d="M9.17676 10.417C9.17676 10.5439 9.15137 10.6646 9.10059 10.7788C9.05404 10.8888 8.97786 10.9946 8.87207 11.0962L3.99072 15.876C3.82568 16.0368 3.62467 16.1172 3.3877 16.1172C3.23535 16.1172 3.09359 16.0791 2.9624 16.0029C2.83122 15.9268 2.72542 15.8252 2.64502 15.6982C2.56885 15.5713 2.53076 15.4274 2.53076 15.2666C2.53076 15.0339 2.61963 14.8265 2.79736 14.6445L7.14551 10.417L2.79736 6.18945C2.61963 6.01172 2.53076 5.80436 2.53076 5.56738C2.53076 5.41081 2.56885 5.26904 2.64502 5.14209C2.72542 5.0109 2.83122 4.90723 2.9624 4.83105C3.09359 4.75488 3.23535 4.7168 3.3877 4.7168C3.62467 4.7168 3.82568 4.7972 3.99072 4.95801L8.87207 9.73779C8.97363 9.83936 9.0498 9.94515 9.10059 10.0552C9.15137 10.1652 9.17676 10.2858 9.17676 10.417Z" fill="black"/>
</svg>
