<svg width="8" height="13" viewBox="0 0 8 13" fill="none" xmlns="http://www.w3.org/2000/svg">
<path d="M7.0127 6.47461C7.0127 6.53646 6.99967 6.59505 6.97363 6.65039C6.95085 6.70247 6.91667 6.7513 6.87109 6.79688L3.00391 10.5811C2.91602 10.6689 2.80859 10.7129 2.68164 10.7129C2.60026 10.7129 2.52539 10.6934 2.45703 10.6543C2.38867 10.6152 2.33496 10.5615 2.2959 10.4932C2.25684 10.4281 2.2373 10.3532 2.2373 10.2686C2.2373 10.1481 2.27962 10.0423 2.36426 9.95117L5.91895 6.47461L2.36426 2.99805C2.27962 2.9069 2.2373 2.80111 2.2373 2.68066C2.2373 2.59603 2.25684 2.52116 2.2959 2.45605C2.33496 2.3877 2.38867 2.33398 2.45703 2.29492C2.52539 2.25586 2.60026 2.23633 2.68164 2.23633C2.80859 2.23633 2.91602 2.27865 3.00391 2.36328L6.87109 6.15234C6.91667 6.19792 6.95085 6.24837 6.97363 6.30371C6.99967 6.35579 7.0127 6.41276 7.0127 6.47461Z" fill="black"/>
</svg>
