<svg width="8" height="13" viewBox="0 0 8 13" fill="none" xmlns="http://www.w3.org/2000/svg">
<path d="M7.21289 6.47461C7.21289 6.57227 7.19336 6.66504 7.1543 6.75293C7.11849 6.83757 7.0599 6.91895 6.97852 6.99707L3.22363 10.6738C3.09668 10.7975 2.94206 10.8594 2.75977 10.8594C2.64258 10.8594 2.53353 10.8301 2.43262 10.7715C2.33171 10.7129 2.25033 10.6348 2.18848 10.5371C2.12988 10.4395 2.10059 10.3288 2.10059 10.2051C2.10059 10.026 2.16895 9.86654 2.30566 9.72656L5.65039 6.47461L2.30566 3.22266C2.16895 3.08594 2.10059 2.92643 2.10059 2.74414C2.10059 2.6237 2.12988 2.51465 2.18848 2.41699C2.25033 2.31608 2.33171 2.23633 2.43262 2.17773C2.53353 2.11914 2.64258 2.08984 2.75977 2.08984C2.94206 2.08984 3.09668 2.15169 3.22363 2.27539L6.97852 5.95215C7.05664 6.03027 7.11523 6.11165 7.1543 6.19629C7.19336 6.28092 7.21289 6.3737 7.21289 6.47461Z" fill="black"/>
</svg>
