<svg width="40" height="40" viewBox="0 0 40 40" fill="none" xmlns="http://www.w3.org/2000/svg">
<path d="M7.93234 32.8418C5.0166 32.8418 3.55176 31.4049 3.55176 28.531V11.483C3.55176 8.6091 5.0166 7.1582 7.93234 7.1582H32.0674C34.9971 7.1582 36.448 8.6091 36.448 11.483V28.531C36.448 31.4049 34.9971 32.8418 32.0674 32.8418H7.93234ZM7.96024 30.5957H32.0395C33.4206 30.5957 34.2019 29.8563 34.2019 28.4054V11.6085C34.2019 10.1576 33.4206 9.4043 32.0395 9.4043H7.96024C6.56515 9.4043 5.79785 10.1576 5.79785 11.6085V28.4054C5.79785 29.8563 6.56515 30.5957 7.96024 30.5957Z" fill="#8E8E93"/>
</svg>
