<svg width="40" height="40" viewBox="0 0 40 40" fill="none" xmlns="http://www.w3.org/2000/svg">
<path d="M11.5388 32.8418C8.62305 32.8418 7.1582 31.4049 7.1582 28.531V11.483C7.1582 8.6091 8.62305 7.1582 11.5388 7.1582H28.4612C31.3909 7.1582 32.8418 8.6091 32.8418 11.483V28.531C32.8418 31.4049 31.3909 32.8418 28.4612 32.8418H11.5388ZM11.5667 30.5957H28.4333C29.8145 30.5957 30.5957 29.8563 30.5957 28.4054V11.6085C30.5957 10.1576 29.8145 9.4043 28.4333 9.4043H11.5667C10.1716 9.4043 9.4043 10.1576 9.4043 11.6085V28.4054C9.4043 29.8563 10.1716 30.5957 11.5667 30.5957Z" fill="#007AFF"/>
</svg>
