<svg width="18" height="34" viewBox="0 0 18 34" fill="none" xmlns="http://www.w3.org/2000/svg">
<path d="M16.2305 18.5391C16.2305 18.6875 16.1992 18.8281 16.1367 18.9609C16.082 19.0859 16 19.2031 15.8906 19.3125L6.60938 28.3945C6.39844 28.6055 6.14062 28.7109 5.83594 28.7109C5.64062 28.7109 5.46094 28.6641 5.29688 28.5703C5.13281 28.4766 5.00391 28.3477 4.91016 28.1836C4.81641 28.0273 4.76953 27.8477 4.76953 27.6445C4.76953 27.3555 4.87109 27.1016 5.07422 26.8828L13.6055 18.5391L5.07422 10.1953C4.87109 9.97656 4.76953 9.72266 4.76953 9.43359C4.76953 9.23047 4.81641 9.05078 4.91016 8.89453C5.00391 8.73047 5.13281 8.60156 5.29688 8.50781C5.46094 8.41406 5.64062 8.36719 5.83594 8.36719C6.14062 8.36719 6.39844 8.46875 6.60938 8.67188L15.8906 17.7656C16 17.875 16.082 17.9961 16.1367 18.1289C16.1992 18.2539 16.2305 18.3906 16.2305 18.5391Z" fill="black"/>
</svg>
