<svg width="40" height="40" viewBox="0 0 40 40" fill="none" xmlns="http://www.w3.org/2000/svg">
<path d="M8.26709 30.589V9.4255C8.26709 6.52372 9.70403 5.04492 12.5919 5.04492H27.4077C30.2956 5.04492 31.7325 6.52372 31.7325 9.4255V30.589C31.7325 33.5047 30.2956 34.9556 27.4077 34.9556H12.5919C9.70403 34.9556 8.26709 33.5047 8.26709 30.589ZM10.5132 30.5472C10.5132 31.9422 11.2526 32.7095 12.7035 32.7095H27.2961C28.747 32.7095 29.4864 31.9422 29.4864 30.5472V9.46736C29.4864 8.07227 28.747 7.29102 27.2961 7.29102H12.7035C11.2526 7.29102 10.5132 8.07227 10.5132 9.46736V30.5472Z" fill="#8E8E93"/>
</svg>
