<svg width="11" height="22" viewBox="0 0 11 22" fill="none" xmlns="http://www.w3.org/2000/svg">
<path d="M10.8193 11.7119C10.8193 11.8584 10.79 11.9976 10.7314 12.1294C10.6777 12.2563 10.5898 12.3784 10.4678 12.4956L4.83545 18.0107C4.64502 18.1963 4.41309 18.2891 4.13965 18.2891C3.96387 18.2891 3.80029 18.2451 3.64893 18.1572C3.49756 18.0693 3.37549 17.9521 3.28271 17.8057C3.19482 17.6592 3.15088 17.4932 3.15088 17.3076C3.15088 17.0391 3.25342 16.7998 3.4585 16.5898L8.47559 11.7119L3.4585 6.83398C3.25342 6.62891 3.15088 6.38965 3.15088 6.11621C3.15088 5.93555 3.19482 5.77197 3.28271 5.62549C3.37549 5.47412 3.49756 5.35449 3.64893 5.2666C3.80029 5.17871 3.96387 5.13477 4.13965 5.13477C4.41309 5.13477 4.64502 5.22754 4.83545 5.41309L10.4678 10.9282C10.585 11.0454 10.6729 11.1675 10.7314 11.2944C10.79 11.4214 10.8193 11.5605 10.8193 11.7119Z" fill="black"/>
</svg>
