<svg width="11" height="22" viewBox="0 0 11 22" fill="none" xmlns="http://www.w3.org/2000/svg">
<path d="M9.71777 12.0645C9.71777 12.151 9.69954 12.2331 9.66309 12.3105C9.63118 12.3835 9.58333 12.4518 9.51953 12.5156L4.10547 17.8135C3.98242 17.9365 3.83203 17.998 3.6543 17.998C3.54036 17.998 3.43555 17.9707 3.33984 17.916C3.24414 17.8613 3.16895 17.7861 3.11426 17.6904C3.05957 17.5993 3.03223 17.4945 3.03223 17.376C3.03223 17.2074 3.09147 17.0592 3.20996 16.9316L8.18652 12.0645L3.20996 7.19727C3.09147 7.06966 3.03223 6.92155 3.03223 6.75293C3.03223 6.63444 3.05957 6.52962 3.11426 6.43848C3.16895 6.34277 3.24414 6.26758 3.33984 6.21289C3.43555 6.1582 3.54036 6.13086 3.6543 6.13086C3.83203 6.13086 3.98242 6.1901 4.10547 6.30859L9.51953 11.6133C9.58333 11.6771 9.63118 11.7477 9.66309 11.8252C9.69954 11.8981 9.71777 11.9779 9.71777 12.0645Z" fill="black"/>
</svg>
