<svg width="11" height="22" viewBox="0 0 11 22" fill="none" xmlns="http://www.w3.org/2000/svg">
<path d="M10.019 11.7119C10.019 11.8047 9.99951 11.8926 9.96045 11.9756C9.92627 12.0537 9.875 12.127 9.80664 12.1953L4.00586 17.8716C3.87402 18.0034 3.71289 18.0693 3.52246 18.0693C3.40039 18.0693 3.28809 18.04 3.18555 17.9814C3.08301 17.9229 3.00244 17.8423 2.94385 17.7397C2.88525 17.6421 2.85596 17.5298 2.85596 17.4028C2.85596 17.2222 2.91943 17.0635 3.04639 16.9268L8.37842 11.7119L3.04639 6.49707C2.91943 6.36035 2.85596 6.20166 2.85596 6.021C2.85596 5.89404 2.88525 5.78174 2.94385 5.68408C3.00244 5.58154 3.08301 5.50098 3.18555 5.44238C3.28809 5.38379 3.40039 5.35449 3.52246 5.35449C3.71289 5.35449 3.87402 5.41797 4.00586 5.54492L9.80664 11.2285C9.875 11.2969 9.92627 11.3726 9.96045 11.4556C9.99951 11.5337 10.019 11.6191 10.019 11.7119Z" fill="black"/>
</svg>
