<svg width="24" height="24" viewBox="0 0 24 24" fill="none" xmlns="http://www.w3.org/2000/svg">
<path d="M6.44678 11.4312C5.94873 11.4312 5.5752 11.0493 5.5752 10.543C5.5752 10.3022 5.6665 10.0864 5.85742 9.88721L11.3276 4.40869C11.5103 4.22607 11.751 4.11816 12 4.11816C12.249 4.11816 12.4897 4.22607 12.6724 4.40869L18.1426 9.88721C18.3335 10.0864 18.4248 10.3022 18.4248 10.543C18.4248 11.0493 18.0596 11.4312 17.5615 11.4312C17.3042 11.4312 17.0801 11.3232 16.9141 11.1655L15.0298 9.30615L12.8384 6.85742L12.9048 8.65039V18.96C12.9048 19.5078 12.5396 19.8813 12 19.8813C11.4688 19.8813 11.0952 19.5078 11.0952 18.96V8.65039L11.1616 6.84912L8.97021 9.30615L7.08594 11.1655C6.92822 11.3232 6.6958 11.4312 6.44678 11.4312Z" fill="black"/>
</svg>
