<svg width="24" height="24" viewBox="0 0 24 24" fill="none" xmlns="http://www.w3.org/2000/svg">
<path d="M12.1562 20.6328C11.9414 20.418 11.834 20.1445 11.834 19.8125V16.082C8.36274 16.082 5.36003 17.0649 3.67969 20.2324C3.42377 20.7049 3.01719 20.9551 2.47852 20.9551C1.78576 20.9551 1.47266 20.2422 1.47266 19.6465C1.47266 16.03 2.25174 13.1208 3.875 11.082C4.69531 10.0599 5.74023 9.27865 7.00977 8.73828C8.53758 8.0913 10.1904 7.92773 11.834 7.92773V4.23633C11.834 3.5756 12.3406 3.04492 13.0059 3.04492C13.5363 3.04492 13.9578 3.3902 14.3242 3.73828L22.0293 10.9453C22.2181 11.1211 22.3483 11.3001 22.4199 11.4824C22.5603 11.8397 22.5661 12.1356 22.4199 12.5078C22.3483 12.6901 22.2181 12.8691 22.0293 13.0449L14.3242 20.3203C14.0898 20.5417 13.8652 20.7012 13.6504 20.7988C13.173 21.0375 12.5525 21.0175 12.1562 20.6328Z" fill="white"/>
</svg>
