<svg width="24" height="24" viewBox="0 0 24 24" fill="none" xmlns="http://www.w3.org/2000/svg">
<path d="M4.51109 19.1025V13.6336H11.1471V21.4286H6.9404C6.17826 21.4286 5.58284 21.2303 5.15414 20.8337C4.72544 20.4372 4.51109 19.8601 4.51109 19.1025ZM12.8351 21.4286V13.6336H19.48V19.1025C19.48 19.8601 19.2656 20.4372 18.8369 20.8337C18.4142 21.2303 17.8217 21.4286 17.0596 21.4286H12.8351ZM3.27856 11.1211V9.14124C3.27856 8.59672 3.4304 8.1972 3.73406 7.94269C4.04368 7.68819 4.46345 7.56093 4.99338 7.56093H6.77071C6.50872 7.31235 6.3033 7.02233 6.15445 6.69088C6.01155 6.35943 5.9401 5.99838 5.9401 5.60775C5.9401 5.01587 6.083 4.49206 6.3688 4.03632C6.6546 3.58057 7.03567 3.22249 7.51201 2.96206C7.9943 2.70164 8.53315 2.57143 9.12858 2.57143C9.78949 2.57143 10.376 2.74899 10.888 3.10411C11.4061 3.45924 11.7752 3.95937 11.9955 4.60452C12.2158 3.95937 12.585 3.45924 13.103 3.10411C13.621 2.74899 14.2075 2.57143 14.8625 2.57143C15.4579 2.57143 15.9938 2.70164 16.4701 2.96206C16.9524 3.22249 17.3365 3.58057 17.6223 4.03632C17.9081 4.49206 18.051 5.01587 18.051 5.60775C18.051 5.99838 17.9795 6.35943 17.8366 6.69088C17.6937 7.02233 17.4913 7.31235 17.2293 7.56093H19.0066C19.5544 7.56093 19.9771 7.68819 20.2749 7.94269C20.5726 8.1972 20.7214 8.59672 20.7214 9.14124V11.1211C20.7214 11.6182 20.5845 11.9822 20.3106 12.2131C20.0367 12.438 19.6526 12.5504 19.1584 12.5504H12.8351V7.56093H14.1837C14.8684 7.56093 15.3984 7.38337 15.7735 7.02825C16.1545 6.67312 16.3451 6.25289 16.3451 5.76755C16.3451 5.29405 16.1932 4.92413 15.8896 4.65779C15.5859 4.38552 15.1929 4.24939 14.7106 4.24939C14.1986 4.24939 13.758 4.43879 13.3888 4.81759C13.0197 5.19047 12.8351 5.69061 12.8351 6.318V7.56093H11.1471V6.318C11.1471 5.69061 10.9654 5.19047 10.6022 4.81759C10.239 4.43879 9.79842 4.24939 9.28041 4.24939C8.79812 4.24939 8.40514 4.38552 8.10147 4.65779C7.79781 4.92413 7.64598 5.29405 7.64598 5.76755C7.64598 6.25289 7.83354 6.67312 8.20865 7.02825C8.58972 7.38337 9.12262 7.56093 9.80736 7.56093H11.1471V12.5504H4.84154C4.34735 12.5504 3.9633 12.438 3.6894 12.2131C3.41551 11.9822 3.27856 11.6182 3.27856 11.1211Z" fill="white"/>
</svg>
