<svg width="20" height="20" viewBox="0 0 20 20" fill="none" xmlns="http://www.w3.org/2000/svg">
<path fill-rule="evenodd" clip-rule="evenodd" d="M9.99999 2.7995C13.9764 2.7995 17.2 6.02308 17.2 9.9995C17.2 13.9759 13.9764 17.1995 9.99999 17.1995C6.02354 17.1995 2.79999 13.9759 2.79999 9.9995C2.80002 6.02308 6.02356 2.7995 9.99999 2.7995ZM9.94842 4.80419C9.69907 4.83227 9.57617 5.43963 9.33124 6.60887C9.22965 7.09371 9.13763 7.35698 8.91171 7.47137C8.41315 7.72373 7.52628 6.84824 7.18749 7.187C6.84154 7.52577 7.72701 8.40688 7.47264 8.91044C7.35823 9.13643 7.09442 9.22835 6.60936 9.32997C5.44013 9.57489 4.83278 9.69781 4.80468 9.94716C4.80176 9.97313 4.80177 9.99852 4.80468 10.0245C4.83284 10.2738 5.4402 10.3968 6.60936 10.6417C7.09445 10.7433 7.35823 10.8352 7.47264 11.0612C7.72469 11.5598 6.84876 12.4467 7.18749 12.7854C7.53236 13.1222 8.46199 12.2163 8.97499 12.4284C9.49284 12.643 9.50021 13.936 9.98671 13.9417V13.9448C10.4712 13.9503 10.4684 12.7004 11.0047 12.5245C11.2453 12.4457 11.4969 12.5667 11.9117 12.8378C12.9116 13.4913 13.4272 13.834 13.6234 13.6776C13.644 13.6612 13.6625 13.6435 13.6789 13.6229C13.835 13.4266 13.4917 12.9101 12.8383 11.9104C12.5674 11.496 12.4464 11.2447 12.525 11.0042C12.6991 10.4733 13.9449 10.4651 13.9453 9.98622H13.943C13.9375 9.49966 12.6446 9.49218 12.4297 8.9745C12.2172 8.46154 13.1228 7.53191 12.7859 7.187C12.4473 6.84054 11.5661 7.72599 11.0625 7.47137C10.8365 7.357 10.7445 7.09371 10.643 6.60887C10.398 5.43973 10.2751 4.83237 10.0258 4.80419C9.99976 4.80126 9.97443 4.80128 9.94842 4.80419Z" fill="black"/>
</svg>
