<svg width="15" height="28" viewBox="0 0 15 28" fill="none" xmlns="http://www.w3.org/2000/svg">
<path d="M13.5254 14.9492C13.5254 15.0729 13.4993 15.1901 13.4473 15.3008C13.4017 15.4049 13.3333 15.5026 13.2422 15.5938L5.50781 23.1621C5.33203 23.3379 5.11719 23.4258 4.86328 23.4258C4.70052 23.4258 4.55078 23.3867 4.41406 23.3086C4.27734 23.2305 4.16992 23.123 4.0918 22.9863C4.01367 22.8561 3.97461 22.7064 3.97461 22.5371C3.97461 22.2962 4.05924 22.0846 4.22852 21.9023L11.3379 14.9492L4.22852 7.99609C4.05924 7.8138 3.97461 7.60221 3.97461 7.36133C3.97461 7.19206 4.01367 7.04232 4.0918 6.91211C4.16992 6.77539 4.27734 6.66797 4.41406 6.58984C4.55078 6.51172 4.70052 6.47266 4.86328 6.47266C5.11719 6.47266 5.33203 6.55729 5.50781 6.72656L13.2422 14.3047C13.3333 14.3958 13.4017 14.4967 13.4473 14.6074C13.4993 14.7116 13.5254 14.8255 13.5254 14.9492Z" fill="black"/>
</svg>
