<svg xmlns="http://www.w3.org/2000/svg" width="20" height="20" viewBox="0 0 20 20" fill="none">
<path d="M4.76953 10.7911C4.76953 10.9411 4.81827 11.0648 4.91576 11.1623C5.02074 11.2523 5.14822 11.2973 5.2982 11.2973H9.23511L7.13168 16.9327C7.03419 17.1801 7.03794 17.3826 7.14292 17.5401C7.25541 17.6975 7.40913 17.78 7.6041 17.7875C7.79907 17.7875 7.9753 17.6863 8.13277 17.4838L14.4881 9.50877C14.6155 9.3588 14.6793 9.20882 14.6793 9.05884C14.6793 8.90887 14.6268 8.78513 14.5218 8.68765C14.4243 8.59016 14.3006 8.54142 14.1506 8.54142H10.2137L12.3171 2.90602C12.4146 2.65856 12.4071 2.45984 12.2946 2.30986C12.1897 2.15238 12.0397 2.07364 11.8447 2.07364C11.6572 2.06615 11.481 2.16363 11.316 2.3661L4.96075 10.3411C4.83327 10.4836 4.76953 10.6336 4.76953 10.7911Z" fill="black"/>
</svg>
