<svg width="20" height="20" viewBox="0 0 20 20" fill="none" xmlns="http://www.w3.org/2000/svg">
<path fill-rule="evenodd" clip-rule="evenodd" d="M10 1C14.9705 1.00001 19 5.02948 19 10C19 14.9706 14.9706 19 10 19C5.02944 19 1 14.9706 1 10C1.00004 5.02947 5.02946 1 10 1ZM9.93555 3.50586C9.62386 3.54097 9.47022 4.30016 9.16406 5.76172C9.03708 6.36776 8.92205 6.69685 8.63965 6.83984C8.01646 7.15529 6.90787 6.06093 6.48438 6.48438C6.05195 6.90784 7.15878 8.00923 6.84082 8.63867C6.69781 8.92116 6.36804 9.03607 5.76172 9.16309C4.30018 9.46924 3.54099 9.62289 3.50586 9.93457C3.50221 9.96704 3.50223 9.99878 3.50586 10.0312C3.54107 10.3429 4.30026 10.4966 5.76172 10.8027C6.36807 10.9298 6.69781 11.0446 6.84082 11.3271C7.15588 11.9504 6.06097 13.059 6.48438 13.4824C6.91546 13.9034 8.07751 12.771 8.71875 13.0361C9.36606 13.3044 9.37527 14.9207 9.9834 14.9277V14.9316C10.589 14.9385 10.5855 13.3761 11.2559 13.1562C11.5567 13.0577 11.8712 13.209 12.3896 13.5479C13.6395 14.3647 14.284 14.7931 14.5293 14.5977C14.555 14.5772 14.5782 14.555 14.5986 14.5293C14.7938 14.2839 14.3646 13.6383 13.5479 12.3887C13.2093 11.8707 13.058 11.5565 13.1562 11.2559C13.3738 10.5922 14.9312 10.582 14.9316 9.9834H14.9287C14.9219 9.37521 13.3057 9.36585 13.0371 8.71875C12.7715 8.07755 13.9036 6.91551 13.4824 6.48438C13.0591 6.0513 11.9577 7.15811 11.3281 6.83984C11.0457 6.69687 10.9307 6.36776 10.8037 5.76172C10.4976 4.30028 10.3439 3.54109 10.0322 3.50586C9.99972 3.5022 9.96805 3.50222 9.93555 3.50586Z" fill="black"/>
</svg>
