<svg width="20" height="20" viewBox="0 0 20 20" fill="none" xmlns="http://www.w3.org/2000/svg">
<path d="M3.72314 16.5518C2.14111 16.5518 1.3208 15.7388 1.3208 14.1787V5.25781C1.3208 3.69043 2.14111 2.88477 3.72314 2.88477H16.2695C17.8516 2.88477 18.6719 3.69775 18.6719 5.25781V14.1787C18.6719 15.7388 17.8516 16.5518 16.2695 16.5518H3.72314ZM3.81104 15.1162H16.1816C16.8555 15.1162 17.2363 14.7646 17.2363 14.0542V5.38232C17.2363 4.67188 16.8555 4.31299 16.1816 4.31299H3.81104C3.12988 4.31299 2.75635 4.67188 2.75635 5.38232V14.0542C2.75635 14.7646 3.12988 15.1162 3.81104 15.1162ZM8.71094 12.582C8.31543 12.8164 7.86133 12.6187 7.86133 12.1938V7.22803C7.86133 6.80322 8.3374 6.62012 8.71094 6.83984L12.7832 9.24951C13.1421 9.46191 13.1494 9.96729 12.7832 10.1797L8.71094 12.582Z" fill="black"/>
</svg>
