<svg width="19" height="19" viewBox="0 0 19 19" fill="none" xmlns="http://www.w3.org/2000/svg">
<path d="M9.68102 16.1019C9.2054 16.1019 8.84416 15.9785 8.59732 15.7317C8.35048 15.4848 8.1789 15.1717 8.08257 14.7925C7.99226 14.4132 7.94108 14.0188 7.92904 13.6094C7.92302 13.194 7.92001 12.8207 7.92001 12.4896C7.92001 12.0682 7.77251 11.722 7.4775 11.4511C7.1825 11.1741 6.80621 11.0356 6.34865 11.0356C5.59007 11.0356 5.00005 10.8309 4.57862 10.4215C4.15718 10.0061 3.94646 9.42816 3.94646 8.68763C3.94646 8.1217 4.11202 7.60393 4.44315 7.13433C4.7803 6.66473 5.22883 6.28845 5.78874 6.00548C6.34865 5.7165 6.96275 5.572 7.63103 5.572C7.93205 5.572 8.23308 5.61114 8.53411 5.68941C8.83513 5.76767 9.10606 5.84293 9.34688 5.91518C9.5877 5.98742 9.77133 6.02354 9.89776 6.02354C10.0182 6.02354 10.1115 5.96334 10.1777 5.84293C10.2439 5.7165 10.2771 5.56297 10.2771 5.38236C10.2771 5.26195 10.2168 5.12046 10.0964 4.95791C9.98205 4.79536 9.83454 4.65688 9.65393 4.54249C9.47331 4.42208 9.28667 4.36188 9.09402 4.36188C9.03983 4.36188 8.99769 4.37693 8.96759 4.40703C8.93748 4.43713 8.91641 4.48229 8.90437 4.54249C8.89233 4.67494 8.84717 4.78331 8.76891 4.8676C8.69666 4.94587 8.5913 4.985 8.45283 4.985C8.23007 4.985 8.04042 4.93684 7.88389 4.84051C7.72736 4.74418 7.58587 4.64785 7.45944 4.55152C7.33301 4.44917 7.20658 4.398 7.08015 4.398C6.95372 4.398 6.84234 4.4552 6.74601 4.56959C6.6557 4.67796 6.55937 4.8074 6.45702 4.95791C6.36069 5.1024 6.23727 5.22883 6.08676 5.3372C5.93625 5.44557 5.73456 5.49976 5.4817 5.49976C5.23485 5.49976 5.03919 5.43353 4.89469 5.30108C4.75622 5.16863 4.68699 4.99102 4.68699 4.76826C4.68699 4.58163 4.73515 4.41907 4.83148 4.2806C4.92781 4.13611 5.03919 3.9886 5.16562 3.83809C5.29205 3.68156 5.40343 3.50094 5.49976 3.29624C5.59609 3.09154 5.64425 2.83567 5.64425 2.52862C5.64425 2.1975 5.76767 1.87841 6.01451 1.57136C6.26738 1.26431 6.66172 1.01446 7.19755 0.821803C7.7394 0.623125 8.44681 0.523786 9.31979 0.523786C10.5359 0.523786 11.6768 0.755577 12.7425 1.21916C13.8081 1.68274 14.7443 2.32092 15.551 3.13369C16.3638 3.94646 16.999 4.88566 17.4565 5.9513C17.9141 7.01091 18.1429 8.13675 18.1429 9.32882C18.1429 9.71413 18.0736 10.0543 17.9352 10.3493C17.7967 10.6383 17.6221 10.8881 17.4114 11.0989C17.0381 10.9182 16.7401 10.6503 16.5173 10.2951C16.2946 9.9399 16.12 9.57265 15.9935 9.19336C15.8671 8.80804 15.7587 8.48293 15.6684 8.21803C15.5781 7.94711 15.4788 7.81164 15.3704 7.81164C15.3042 7.81164 15.25 7.84175 15.2079 7.90195C15.1717 7.95614 15.1236 8.01333 15.0634 8.07354C15.0092 8.12772 14.9249 8.15481 14.8105 8.15481C14.672 8.15481 14.5125 8.0916 14.3319 7.96517C14.1573 7.83272 13.9767 7.6822 13.79 7.51363C13.6094 7.33903 13.4378 7.18852 13.2753 7.06209C13.1187 6.92964 12.9893 6.86341 12.887 6.86341C12.7786 6.86341 12.6792 6.91759 12.5889 7.02596C12.4986 7.13433 12.4535 7.25474 12.4535 7.3872C12.4535 7.50159 12.5468 7.62802 12.7334 7.76649C12.9201 7.89894 13.1338 8.04343 13.3746 8.19997C13.6154 8.3565 13.8292 8.52207 14.0158 8.69666C14.2024 8.87126 14.2958 9.05187 14.2958 9.23851C14.2958 9.49739 14.2175 9.74423 14.061 9.97904C13.9044 10.2078 13.7449 10.4125 13.5823 10.5931C13.4258 10.7737 13.3475 10.9152 13.3475 11.0176C13.3475 11.2403 13.3626 11.5233 13.3927 11.8665C13.4288 12.2096 13.3325 12.5679 13.1037 12.9411C13.0134 13.0917 12.8629 13.3385 12.6522 13.6817C12.4414 14.0188 12.1826 14.374 11.8755 14.7473C11.5745 15.1206 11.2343 15.4397 10.855 15.7046C10.4817 15.9695 10.0904 16.1019 9.68102 16.1019ZM11.9929 4.00065C12.0832 4.00065 12.1765 4.03376 12.2729 4.09998C12.3692 4.16019 12.4986 4.19029 12.6612 4.19029C12.7696 4.19029 12.8599 4.14815 12.9321 4.06386C13.0044 3.97355 13.0405 3.86518 13.0405 3.73875C13.0405 3.52803 12.9321 3.35043 12.7154 3.20593C12.5046 3.05542 12.2428 2.98016 11.9297 2.98016C11.5564 2.98016 11.2644 3.04037 11.0537 3.16078C10.849 3.28119 10.7467 3.44977 10.7467 3.66651C10.7467 3.81702 10.7948 3.93743 10.8911 4.02774C10.9935 4.11805 11.1169 4.1632 11.2614 4.1632C11.4119 4.1632 11.5323 4.13611 11.6226 4.08192C11.719 4.02774 11.8424 4.00065 11.9929 4.00065ZM9.32882 18.6576C8.05246 18.6576 6.85137 18.4138 5.72553 17.9261C4.59969 17.4445 3.6063 16.7732 2.74536 15.9123C1.89045 15.0513 1.21916 14.0579 0.731495 12.9321C0.243832 11.8063 0 10.6052 0 9.32882C0 8.05246 0.243832 6.85137 0.731495 5.72553C1.21916 4.59969 1.89045 3.60931 2.74536 2.75439C3.6063 1.89346 4.59668 1.21916 5.7165 0.731495C6.84234 0.243832 8.04343 0 9.31979 0C10.6022 0 11.8063 0.243832 12.9321 0.731495C14.0579 1.21916 15.0513 1.89346 15.9123 2.75439C16.7732 3.60931 17.4475 4.59969 17.9352 5.72553C18.4228 6.85137 18.6667 8.05246 18.6667 9.32882C18.6667 10.6052 18.4228 11.8063 17.9352 12.9321C17.4475 14.0579 16.7732 15.0513 15.9123 15.9123C15.0513 16.7732 14.0579 17.4445 12.9321 17.9261C11.8063 18.4138 10.6052 18.6576 9.32882 18.6576ZM9.32882 17.2127C10.4065 17.2127 11.421 17.005 12.3722 16.5896C13.3234 16.1802 14.1603 15.6143 14.8828 14.8918C15.6112 14.1633 16.1802 13.3234 16.5896 12.3722C17.005 11.421 17.2127 10.4065 17.2127 9.32882C17.2127 8.25114 17.005 7.23668 16.5896 6.28544C16.1802 5.33419 15.6112 4.49734 14.8828 3.77488C14.1543 3.05241 13.3144 2.48648 12.3632 2.07708C11.4119 1.66167 10.3975 1.45396 9.31979 1.45396C8.24813 1.45396 7.23668 1.66167 6.28544 2.07708C5.33419 2.48648 4.49734 3.05241 3.77487 3.77488C3.05241 4.49734 2.48347 5.33419 2.06805 6.28544C1.65866 7.23668 1.45396 8.25114 1.45396 9.32882C1.45396 10.4065 1.65866 11.421 2.06805 12.3722C2.48347 13.3234 3.05241 14.1633 3.77487 14.8918C4.49734 15.6143 5.33419 16.1802 6.28544 16.5896C7.23668 17.005 8.25114 17.2127 9.32882 17.2127Z" fill="white"/>
</svg>
