<svg width="14" height="18" viewBox="0 0 14 18" fill="none" xmlns="http://www.w3.org/2000/svg">
<path d="M7 2.48828C7.07747 2.48828 7.15267 2.50423 7.22559 2.53613C7.30306 2.56803 7.38281 2.61816 7.46484 2.68652L12.0723 6.43262C12.1953 6.53744 12.2568 6.68555 12.2568 6.87695C12.2568 6.99544 12.2295 7.10254 12.1748 7.19824C12.1201 7.29395 12.0449 7.36914 11.9492 7.42383C11.8581 7.47852 11.751 7.50586 11.6279 7.50586C11.555 7.50586 11.4798 7.49219 11.4023 7.46484C11.3294 7.43294 11.2542 7.38509 11.1768 7.32129L7 3.92383L2.82324 7.32129C2.74121 7.38509 2.66374 7.43294 2.59082 7.46484C2.5179 7.49219 2.44271 7.50586 2.36523 7.50586C2.24674 7.50586 2.13965 7.47852 2.04395 7.42383C1.9528 7.36914 1.87988 7.29395 1.8252 7.19824C1.77051 7.10254 1.74316 6.99544 1.74316 6.87695C1.74316 6.68555 1.80469 6.53744 1.92773 6.43262L6.53516 2.68652C6.61719 2.61816 6.69466 2.56803 6.76758 2.53613C6.84505 2.50423 6.92253 2.48828 7 2.48828ZM7 15.6406C6.92253 15.6406 6.84505 15.6247 6.76758 15.5928C6.69466 15.5609 6.61719 15.5107 6.53516 15.4424L1.92773 11.6963C1.80469 11.5915 1.74316 11.4411 1.74316 11.2451C1.74316 11.1266 1.77051 11.0218 1.8252 10.9307C1.87988 10.835 1.9528 10.7598 2.04395 10.7051C2.13965 10.6504 2.24674 10.623 2.36523 10.623C2.44271 10.623 2.5179 10.639 2.59082 10.6709C2.66374 10.6982 2.74121 10.7438 2.82324 10.8076L7 14.2051L11.1768 10.8076C11.2542 10.7438 11.3294 10.6982 11.4023 10.6709C11.4798 10.639 11.555 10.623 11.6279 10.623C11.751 10.623 11.8581 10.6504 11.9492 10.7051C12.0449 10.7598 12.1201 10.835 12.1748 10.9307C12.2295 11.0218 12.2568 11.1266 12.2568 11.2451C12.2568 11.4411 12.1953 11.5915 12.0723 11.6963L7.46484 15.4424C7.38281 15.5107 7.30306 15.5609 7.22559 15.5928C7.15267 15.6247 7.07747 15.6406 7 15.6406Z" fill="#fff"/>
</svg>
